<svg width="27" height="31" viewBox="0 0 27 31" fill="none" xmlns="http://www.w3.org/2000/svg">
<path d="M13.3868 30.2565C15.4505 30.2565 17.1244 28.5826 17.1244 26.5172H9.64928C9.64928 28.5826 11.3232 30.2565 13.3868 30.2565ZM25.9714 21.5094C24.8426 20.2965 22.7305 18.4718 22.7305 12.4948C22.7305 7.95498 19.5474 4.32083 15.2553 3.42924V2.21162C15.2553 1.17922 14.4187 0.341965 13.3868 0.341965C12.355 0.341965 11.5184 1.17922 11.5184 2.21162V3.42924C7.22632 4.32083 4.04323 7.95498 4.04323 12.4948C4.04323 18.4718 1.9311 20.2965 0.80229 21.5094C0.451729 21.8863 0.296313 22.3368 0.299235 22.7779C0.305662 23.7361 1.05761 24.6475 2.17474 24.6475H24.5989C25.7161 24.6475 26.4686 23.7361 26.4744 22.7779C26.4774 22.3368 26.322 21.8857 25.9714 21.5094Z" fill="url(#paint0_linear_125:443)"/>
<defs>
<linearGradient id="paint0_linear_125:443" x1="4.4607e-05" y1="7.71749e-05" x2="28.5001" y2="26.5001" gradientUnits="userSpaceOnUse">
<stop offset="0.119792" stop-color="#4AA8FF" stop-opacity="0.83"/>
<stop offset="0.421875" stop-color="#BEB2F4" stop-opacity="0.78"/>
<stop offset="0.708333" stop-color="#E591B8" stop-opacity="0.85"/>
<stop offset="0.989583" stop-color="#DC0A0A" stop-opacity="0.58"/>
</linearGradient>
</defs>
</svg>
