<?xml version="1.0" encoding="UTF-8"?>
<!DOCTYPE svg PUBLIC "-//W3C//DTD SVG 1.0//EN" "http://www.w3.org/TR/2001/REC-SVG-20010904/DTD/svg10.dtd">
<!-- Creator: CorelDRAW 2019 (64-Bit) -->
<?xml-stylesheet href="QR Code.css" type="text/css"?>
<svg
    xmlns="http://www.w3.org/2000/svg"
    xml:space="preserve"
    width="133.577mm"
    height="133.577mm"
    version="1.0" style="shape-rendering:geometricPrecision; text-rendering:geometricPrecision; image-rendering:optimizeQuality; fill-rule:evenodd; clip-rule:evenodd"
viewBox="0 0 15748.3 15748.3"
 xmlns:xlink="http://www.w3.org/1999/xlink"
 xmlns:xodm="http://www.corel.com/coreldraw/odm/2003">
 <defs>
 <linearGradient id="id0" gradientUnits="userSpaceOnUse" x1="-1692.74" y1="-1799.69" x2="16074.37" y2="15967.42">
  <stop offset="0" style="stop-opacity:1; stop-color:#7ABAF5"/>
  <stop offset="0.168627" style="stop-opacity:1; stop-color:#7ABAF5"/>
  <stop offset="0.490196" style="stop-opacity:0.670588; stop-color:#C881F3"/>
  <stop offset="0.670588" style="stop-opacity:0.317647; stop-color:#BD38B0"/>
  <stop offset="1" style="stop-opacity:1; stop-color:#F10707"/>
 </linearGradient>
 </defs>
 <g id="Layer_x0020_1">
  <metadata id="CorelCorpID_0Corel-Layer"/>
  <path class="fil0" d="M-0 6749.1l6744.37 0 0 -6749.1 -6744.37 0 0 6749.1zm2248.12 -4499.48l2248.12 0 0 2249.87 -2248.12 0 0 -2249.87zm-2248.12 13498.69l6744.37 0 0 -6749.35 -6744.37 0 0 6749.35zm2248.12 -4499.48l2248.12 0 0 2249.62 -2248.12 0 0 -2249.62zm13489 -11248.82l-6744.37 0 0 6749.1 6744.37 0 0 -6749.1zm-2248.13 4499.48l-2248.12 0 0 -2249.87 2248.12 0 0 2249.87zm-4485.05 4499.47l2248.13 0 0 2249.87 -2248.13 0 0 -2249.87zm2248.13 2249.87l2248.12 0 0 2249.62 -2248.12 0 0 -2249.62zm2248.12 2249.62l2248.12 0 0 2249.87 -2248.12 0 0 -2249.87zm0 -4499.48l2248.12 0 0 2249.87 -2248.12 0 0 -2249.87z"/>
 </g>
</svg>
