<svg width="25" height="25" viewBox="0 0 25 25" fill="none" xmlns="http://www.w3.org/2000/svg">
<path d="M0.572632 10.9914H10.8217V0.735001H0.572632V10.9914ZM3.989 4.15381H7.40536V7.57262H3.989V4.15381ZM0.572632 24.6667H10.8217V14.4102H0.572632V24.6667ZM3.989 17.829H7.40536V21.2478H3.989V17.829ZM24.4872 0.735001H14.2381V10.9914H24.4872V0.735001ZM21.0708 7.57262H17.6545V4.15381H21.0708V7.57262ZM14.2552 14.4102H17.6715V17.829H14.2552V14.4102ZM17.6715 17.829H21.0879V21.2478H17.6715V17.829ZM21.0879 21.2478H24.5043V24.6667H21.0879V21.2478ZM21.0879 14.4102H24.5043V17.829H21.0879V14.4102Z" fill="url(#paint0_linear_125:438)"/>
<defs>
<linearGradient id="paint0_linear_125:438" x1="-2.51397" y1="-2.35381" x2="25.2853" y2="25.4256" gradientUnits="userSpaceOnUse">
<stop offset="0.169951" stop-color="#7ABAF5"/>
<stop offset="0.494792" stop-color="#C881F3" stop-opacity="0.671875"/>
<stop offset="0.666667" stop-color="#BD38B0" stop-opacity="0.317708"/>
<stop offset="1" stop-color="#F10707"/>
</linearGradient>
</defs>
</svg>

