<svg 
          width="23.931640625" 
          height="23.931655883789062" fill="none" 
          xmlns="http://www.w3.org/2000/svg">
          <defs>
            <linearGradient id="e125438">
        <stop offset="16.995108127593994%" style="stop-color:rgb(121.69609263539314,186.04161947965622,245.43749392032623);stop-opacity:1" />
        <stop offset="49.47916567325592%" style="stop-color:rgb(199.7798278927803,128.75286877155304,243.31249594688416);stop-opacity:0.671875" />
        <stop offset="66.66666865348816%" style="stop-color:rgb(189.12500202655792,55.949489772319794,175.80740064382553);stop-opacity:0.3177083432674408" />
        <stop offset="100%" style="stop-color:rgb(241.18749797344208,7.034623324871063,7.034623324871063);stop-opacity:1" />
        </linearGradient>
          </defs>
          <path d="M 0 10.256423950195312 L 10.249097068635605 10.256423950195312 L 10.249097068635605 0 L 0 0 L 0 10.256423950195312 Z M 3.4163654442442164 3.418808228874783 L 6.832730888488433 3.418808228874783 L 6.832730888488433 6.837616457749566 L 3.4163654442442164 6.837616457749566 L 3.4163654442442164 3.418808228874783 Z M 0 23.93165588378906 L 10.249097068635605 23.93165588378906 L 10.249097068635605 13.675232915499132 L 0 13.675232915499132 L 0 23.93165588378906 Z M 3.4163654442442164 17.094041880802955 L 6.832730888488433 17.094041880802955 L 6.832730888488433 20.512847900390625 L 3.4163654442442164 20.512847900390625 L 3.4163654442442164 17.094041880802955 Z M 23.91455786440853 0 L 13.665461776976866 0 L 13.665461776976866 10.256423950195312 L 23.91455786440853 10.256423950195312 L 23.91455786440853 0 Z M 20.49819413727121 6.837616457749566 L 17.08182648531813 6.837616457749566 L 17.08182648531813 3.418808228874783 L 20.49819413727121 3.418808228874783 L 20.49819413727121 6.837616457749566 Z M 13.682544537568335 13.675232915499132 L 17.098909245909596 13.675232915499132 L 17.098909245909596 17.094041880802955 L 13.682544537568335 17.094041880802955 L 13.682544537568335 13.675232915499132 Z M 17.098909245909596 17.094041880802955 L 20.515274935454798 17.094041880802955 L 20.515274935454798 20.512847900390625 L 17.098909245909596 20.512847900390625 L 17.098909245909596 17.094041880802955 Z M 20.515274935454798 20.512847900390625 L 23.931640625 20.512847900390625 L 23.931640625 23.93165588378906 L 20.515274935454798 23.93165588378906 L 20.515274935454798 20.512847900390625 Z M 20.515274935454798 13.675232915499132 L 23.931640625 13.675232915499132 L 23.931640625 17.094041880802955 L 20.515274935454798 17.094041880802955 L 20.515274935454798 13.675232915499132 Z" fill="url(#e125438)"/>
        </svg>