<svg width="260" height="260" viewBox="0 0 260 260" fill="none" xmlns="http://www.w3.org/2000/svg">
<path d="M223.419 121.506C231.404 106.101 239.675 83.2798 216.516 65.0735C193.356 46.8657 170.485 60.5694 159.726 70.4776C153.518 76.1942 147.867 82.8262 142.918 88.6337C140.033 92.0194 137.386 95.125 135.008 97.6055C118.977 114.322 102.864 118.77 80.3923 124.974C71.6327 127.392 61.9069 130.077 50.8432 133.859C20.7359 144.152 16.404 153.839 19.8904 162.842C21.007 162.373 22.1773 161.911 23.3993 161.455C43.7315 153.872 78.3836 148.151 118.594 148.151C169.937 148.151 223.336 166.705 243.315 181.566C240.269 175.442 232.366 168.877 225.132 162.867C219.242 157.973 213.796 153.449 211.775 149.831C207.729 142.588 210.425 139.313 214.993 133.765C217.506 130.713 220.585 126.973 223.419 121.506Z" fill="url(#paint0_linear_215:752)"/>
<path d="M223.717 205.304L223.444 205.311L222.246 205.336C182.311 206.108 101.525 201.008 50.2758 194.391L50.2733 194.39L50.2668 194.39C50.2698 194.39 50.2728 194.391 50.2758 194.391C70.8457 202.69 100.039 208.291 130 208.376C154.787 208.447 171.813 208.846 183.995 209.132C209.571 209.731 213.789 209.83 223.642 205.338L223.717 205.304Z" fill="url(#paint1_linear_215:752)"/>
<path fill-rule="evenodd" clip-rule="evenodd" d="M120.974 155.106L121.954 155.169L120.504 178.428L119.805 179.307L118.73 178.57L120.974 155.106Z" fill="white"/>
<ellipse cx="194.846" cy="98.2988" rx="27.1283" ry="27.1283" fill="white"/>
<path fill-rule="evenodd" clip-rule="evenodd" d="M123.83 124.734C123.83 124.734 123.77 123.178 125.625 123.086C127.478 122.994 142.619 124.734 142.619 124.734C142.619 124.734 145.877 125.203 145.339 128.864C144.8 132.525 142.833 140.962 142.833 140.962C142.833 140.962 143.064 142.405 140.698 142.022C138.333 141.639 131.309 139.813 123.83 140.972C123.83 140.972 122.595 141.117 122.631 146.369L121.954 146.244C121.954 146.244 122.942 126.208 123.83 124.734Z" fill="white"/>
<path fill-rule="evenodd" clip-rule="evenodd" d="M134.943 112.347C135.089 112.19 134.943 112.347 134.943 112.347C134.349 112.984 133.844 113.55 133.518 113.959C131.964 115.913 129.883 117.765 129.042 119.181C129.042 119.181 125.321 120.877 123.83 119.114C123.83 119.114 127.249 114.631 129.96 112.628C129.96 112.628 132.594 111.331 134.943 112.347ZM137.832 109.357L135.08 108.558C135.08 108.558 137.871 106.819 139.417 106.161L140.698 106.508C140.698 106.508 139.374 107.802 137.832 109.357C137.793 109.399 137.832 109.357 137.832 109.357Z" fill="white"/>
<path fill-rule="evenodd" clip-rule="evenodd" d="M92.1476 183.934C92.1476 183.934 87.3074 182.861 86.1554 177.326C86.1554 177.326 87.0377 175.729 90.4964 172.032C90.4964 172.032 94.869 169.225 94.1489 164.775C94.1489 164.775 89.3789 163.538 90.9741 156.291L91.9913 154.433C91.9913 154.433 90.8651 146.386 91.8191 141.622C91.8191 141.622 90.9368 135.545 94.6122 135.109C94.6122 135.109 96.1587 134.883 96.3294 134.277C96.3294 134.277 94.0657 128.007 100.693 124.967C107.32 121.928 112.476 127.163 112.268 132.742C112.268 132.742 111.694 136.561 109.355 138.27C109.355 138.27 114.378 141.411 117.174 145.541C117.174 145.541 120.3 148.784 121.674 148.237C121.674 148.237 125.865 148.145 125.294 149.61C124.724 151.073 124.322 153.171 118.187 153.489C118.187 153.489 112.255 152.729 110.708 152.686L109.621 152.305C109.621 152.305 110.959 155.145 109.503 157.852C108.047 160.557 106.988 161.494 107.145 162.019L110.37 177.099C110.37 177.099 110.137 179.646 112.988 179.2C115.838 178.752 115.082 180.492 114.514 180.91C113.946 181.328 109.249 185.345 105.307 180.222C101.365 175.098 100.785 174.045 100.785 174.045L92.9022 179.564C92.9022 179.564 92.2897 180.159 92.7358 181.545C92.7358 181.545 93.588 183.597 92.1476 183.934Z" fill="white"/>
<path fill-rule="evenodd" clip-rule="evenodd" d="M164.261 100.496C162.856 68.9312 195.346 70.4672 195.415 70.4775C234.207 76.2158 224.974 125.427 194.912 126.984C194.891 126.985 165.474 127.733 164.261 100.496ZM165.375 100.458C164.529 81.4462 177.059 75.2022 186.158 73.171C186.189 73.2033 186.229 73.238 186.276 73.2751C186.901 73.7729 187.521 74.2311 188.362 74.3929C188.855 74.4877 189.332 74.6603 189.81 74.833L189.81 74.8331C190.178 74.9663 190.547 75.0997 190.924 75.1976C191.422 75.3271 191.941 75.385 192.458 75.4427C192.607 75.4594 192.756 75.476 192.905 75.4944C193.042 75.5113 193.182 75.5122 193.321 75.513C193.497 75.5141 193.672 75.5152 193.842 75.5485C194.066 75.5925 194.287 75.6556 194.507 75.7186C194.781 75.7967 195.053 75.8747 195.332 75.9161C195.53 75.9456 195.735 75.9355 195.94 75.9253C196.185 75.9133 196.428 75.9012 196.656 75.9572C197.256 76.1042 197.838 76.3301 198.417 76.5552C198.499 76.587 198.581 76.6188 198.663 76.6504L198.794 76.7006L198.794 76.7007C199.408 76.9374 200.026 77.1756 200.61 77.4754C201.171 77.7633 201.695 77.7069 201.993 77.2034C202.448 76.4376 202.925 75.7238 203.938 75.6305C204.134 75.6124 204.325 75.5289 204.515 75.4454C204.602 75.4074 204.689 75.3695 204.776 75.3377L204.671 75.2965L204.671 75.2962L204.67 75.2962C204.42 75.1978 204.17 75.0994 203.921 74.9983C203.916 74.9965 203.917 74.984 203.918 74.9704C203.919 74.9547 203.921 74.9373 203.914 74.9326C203.31 74.4913 202.309 74.8525 201.97 75.5021C201.762 75.9021 201.36 76.2989 200.95 76.4729C200.531 76.6506 200.177 76.4302 199.804 76.197C199.649 76.1008 199.492 76.0024 199.325 75.9289C198.609 75.715 197.963 75.5034 197.32 75.2864C197.118 75.2182 196.918 75.1454 196.717 75.0725C196.289 74.9172 195.862 74.762 195.423 74.6531C195.202 74.5985 194.969 74.6024 194.735 74.6063C194.552 74.6094 194.369 74.6125 194.19 74.5879C193.839 74.5391 193.489 74.4742 193.139 74.4092C192.751 74.3372 192.363 74.2652 191.972 74.2152C191.713 74.1821 191.448 74.1747 191.184 74.1675C190.754 74.1556 190.326 74.1438 189.931 74.0214C189.786 73.9765 189.646 73.9248 189.507 73.8733L189.507 73.8733C189.141 73.7385 188.779 73.6051 188.351 73.599C187.973 73.5936 187.531 73.333 187.238 73.058C187.201 73.0226 187.164 72.9925 187.129 72.9672C191.736 72.0601 195.245 72.2159 195.267 72.2193C230.34 77.6491 223.12 124.116 194.912 125.577C194.892 125.578 166.513 126.016 165.375 100.458ZM86.2487 179.121L86.2784 179.207C86.4606 179.741 86.7715 180.23 87.0915 180.735L87.0917 180.735C87.2165 180.931 87.3427 181.13 87.4632 181.335C87.541 181.43 87.6114 181.523 87.6793 181.613L87.6795 181.613C87.8021 181.775 87.9165 181.927 88.0509 182.058C88.9058 182.891 89.8397 183.621 90.9502 184.086C91.0247 184.118 91.1204 184.099 91.2158 184.081C91.3117 184.062 91.4072 184.044 91.4807 184.076C92.4776 184.517 93.467 183.951 93.4272 182.852C93.4135 182.475 93.3003 182.102 93.1867 181.727C93.1073 181.465 93.0277 181.203 92.9816 180.937C92.9338 180.662 92.9824 180.309 93.1245 180.074C93.4967 179.457 94.0876 179.081 94.7105 178.715C95.0046 178.543 95.2546 178.298 95.5055 178.052C95.7012 177.86 95.8975 177.668 96.1159 177.509C96.4618 177.257 96.8297 177.036 97.1977 176.815L97.1979 176.814C97.4673 176.652 97.7367 176.491 97.9976 176.317C98.1772 176.196 98.3459 176.062 98.5144 175.929C98.911 175.614 99.3071 175.299 99.8452 175.165C100.526 174.995 101.237 175.21 101.642 175.845C101.816 176.116 102.022 176.367 102.229 176.617C102.385 176.807 102.542 176.997 102.685 177.197C103.031 177.681 103.357 178.181 103.661 178.692C103.783 178.897 103.89 179.114 103.996 179.33C104.18 179.706 104.364 180.08 104.628 180.388C104.988 180.806 105.402 181.178 105.817 181.55L105.817 181.551C106.098 181.803 106.38 182.056 106.646 182.325C107.393 183.079 108.356 183.277 109.331 183.36C109.831 183.402 110.338 183.303 110.832 183.208C111.143 183.147 111.448 183.088 111.745 183.065C112.136 183.034 112.449 182.88 112.755 182.728C113.04 182.586 113.321 182.447 113.656 182.413C113.97 182.382 114.261 182.116 114.551 181.85C114.68 181.731 114.81 181.612 114.942 181.514C115.773 180.896 115.801 179.748 114.969 179.164C114.884 179.105 114.758 179.1 114.634 179.096C114.504 179.091 114.376 179.087 114.295 179.021C113.655 178.497 112.97 178.636 112.27 178.788C111.65 178.922 110.897 178.236 110.906 177.606C110.909 177.35 110.841 177.091 110.773 176.835L110.773 176.835C110.756 176.769 110.738 176.703 110.722 176.638C110.683 176.476 110.633 176.316 110.584 176.156C110.495 175.869 110.406 175.583 110.377 175.291C110.352 175.034 110.29 174.787 110.227 174.54L110.227 174.54C110.145 174.215 110.064 173.891 110.065 173.545C110.066 173.337 109.986 173.132 109.905 172.924C109.845 172.772 109.785 172.618 109.757 172.462C109.716 172.236 109.699 172.006 109.683 171.776C109.666 171.537 109.649 171.299 109.604 171.065C109.544 170.748 109.465 170.436 109.386 170.124C109.296 169.771 109.206 169.417 109.144 169.059C109.099 168.794 109.098 168.521 109.098 168.247C109.098 168.07 109.098 167.892 109.085 167.716C109.078 167.612 109.078 167.501 109.077 167.387C109.076 167.068 109.075 166.74 108.915 166.559C108.718 166.337 108.726 166.106 108.735 165.871C108.742 165.675 108.749 165.475 108.638 165.276C108.426 164.894 108.413 164.398 108.401 163.906V163.906V163.906C108.397 163.721 108.392 163.538 108.377 163.361C108.366 163.238 108.381 163.101 108.396 162.965C108.42 162.735 108.444 162.511 108.342 162.38C107.966 161.901 108.183 161.426 108.343 161.074L108.37 161.014C108.631 160.433 108.943 159.873 109.254 159.314L109.254 159.314C109.587 158.714 109.921 158.115 110.193 157.488C110.446 156.905 110.527 156.24 110.606 155.587L110.607 155.586L110.607 155.585L110.607 155.585C110.623 155.455 110.638 155.325 110.655 155.196C110.686 154.963 110.678 154.724 110.669 154.485C110.659 154.219 110.65 153.953 110.695 153.697C110.727 153.515 110.977 153.359 111.188 153.227L111.223 153.205L111.257 153.183L111.28 153.169C111.302 153.155 111.35 153.197 111.408 153.248C111.476 153.307 111.556 153.378 111.624 153.387C111.816 153.411 112.026 153.409 112.235 153.407C112.641 153.403 113.042 153.399 113.297 153.593C113.753 153.939 114.232 153.921 114.689 153.903C114.878 153.896 115.064 153.889 115.242 153.908C116.243 154.014 117.261 153.952 118.279 153.889L118.28 153.889C118.68 153.864 119.08 153.839 119.479 153.825C119.742 153.816 120.008 153.805 120.267 153.763C121.558 153.555 122.827 153.254 123.848 152.381C124.164 152.111 124.428 151.782 124.693 151.454C124.804 151.316 124.915 151.178 125.029 151.045C125.333 150.69 125.448 150.287 125.578 149.825C125.818 148.97 125.284 147.898 124.359 147.967C123.979 147.996 123.722 147.877 123.417 147.73C123.235 147.642 122.989 147.641 122.779 147.665C122.633 147.681 122.486 147.709 122.34 147.737C121.746 147.85 121.159 147.962 120.683 147.296C120.584 147.156 120.387 147.081 120.198 147.009C120.173 146.999 120.148 146.989 120.124 146.98L120.086 146.965C120.07 146.958 120.053 146.951 120.037 146.944C119.93 146.898 119.815 146.864 119.699 146.83C119.494 146.77 119.289 146.711 119.144 146.582C118.545 146.056 117.988 145.478 117.449 144.889C117.174 144.589 116.914 144.276 116.654 143.963L116.654 143.963L116.654 143.963L116.653 143.962L116.653 143.962L116.653 143.962L116.653 143.962L116.653 143.962L116.653 143.962L116.652 143.961L116.652 143.961L116.652 143.961L116.652 143.961L116.652 143.961L116.652 143.96L116.651 143.96L116.651 143.96L116.651 143.96L116.651 143.96L116.651 143.96L116.651 143.959L116.651 143.959L116.651 143.959L116.651 143.959L116.65 143.959L116.65 143.959L116.65 143.959L116.65 143.959L116.65 143.959L116.65 143.959L116.65 143.959L116.65 143.959L116.65 143.959L116.65 143.959L116.65 143.959L116.65 143.959L116.65 143.959L116.65 143.959L116.65 143.958L116.65 143.958L116.65 143.958C116.38 143.633 116.11 143.308 115.824 142.998C115.26 142.386 114.67 141.796 114.058 141.233C113.555 140.77 113.02 140.339 112.47 139.932C112.071 139.637 111.641 139.381 111.213 139.126L111.213 139.126L111.09 139.053C110.523 138.714 110.476 138.119 110.464 137.585C110.461 137.46 110.683 137.329 110.906 137.199L110.906 137.199C111.009 137.139 111.111 137.079 111.192 137.019C111.211 137.005 111.231 136.988 111.242 136.968C111.304 136.855 111.367 136.743 111.429 136.63L111.527 136.454L111.527 136.453L111.527 136.453L111.528 136.452L111.528 136.452L111.528 136.452L111.528 136.451L111.528 136.451L111.528 136.451L111.529 136.45L111.529 136.45L111.529 136.45L111.529 136.449L111.529 136.449L111.53 136.449L111.53 136.448L111.53 136.448L111.53 136.448L111.53 136.447L111.531 136.447L111.531 136.447C111.81 135.943 112.089 135.44 112.353 134.929C112.422 134.796 112.449 134.641 112.476 134.486C112.486 134.429 112.496 134.372 112.508 134.316C112.551 134.12 112.6 133.923 112.649 133.727C112.778 133.212 112.907 132.697 112.913 132.181C112.915 131.927 112.863 131.583 112.813 131.285C112.719 130.719 112.619 130.151 112.464 129.599C112.409 129.402 112.313 129.216 112.216 129.03C112.143 128.888 112.07 128.746 112.014 128.598C111.945 128.417 111.896 128.222 111.847 128.027C111.755 127.665 111.664 127.304 111.45 127.042C111.256 126.803 111.093 126.537 110.93 126.269C110.551 125.648 110.17 125.023 109.382 124.743C109.065 124.63 108.764 124.455 108.464 124.282C108.064 124.051 107.667 123.821 107.238 123.741C106.132 123.535 104.973 123.554 103.838 123.573C102.944 123.588 102.016 123.627 101.172 123.885C100.565 124.071 99.9511 124.371 99.369 124.761C99.2631 124.832 99.1551 124.902 99.0466 124.973L99.0465 124.973C98.4912 125.335 97.9234 125.706 97.5602 126.194C97.4202 126.382 97.2586 126.561 97.0957 126.743L97.0955 126.743C96.6033 127.291 96.0979 127.854 96.1315 128.696C95.5782 129.012 95.5625 129.553 95.548 130.055V130.055V130.055V130.056V130.056V130.056V130.056V130.056V130.056V130.056V130.056V130.056C95.5434 130.213 95.539 130.366 95.5182 130.507L95.5158 130.523C95.4295 131.11 95.3371 131.738 95.4716 132.431C95.6364 133.28 95.8228 134.042 96.2658 134.771C96.5279 135.202 96.7443 135.66 96.0177 135.9C95.916 135.933 95.7908 136.021 95.7568 136.113C95.5839 136.584 95.3501 137.011 94.8518 137.179C94.3944 137.333 94.4286 137.653 94.4622 137.967C94.4708 138.048 94.4793 138.128 94.4796 138.205C94.4797 138.246 94.8625 138.378 94.9556 138.311C95.2395 138.108 95.514 137.89 95.7883 137.673L95.7884 137.673L95.7885 137.673L95.7886 137.673L95.7887 137.673L95.7888 137.673L95.7888 137.673L95.7889 137.673L95.789 137.673L95.7891 137.672L95.7892 137.672L95.7893 137.672L95.7894 137.672L95.7895 137.672L95.7896 137.672L95.7897 137.672L95.7898 137.672L95.7899 137.672L95.7899 137.672L95.79 137.672L95.7901 137.672C96.1655 137.374 96.5407 137.077 96.9397 136.816C97.1809 136.658 97.6062 136.636 97.8929 136.726C98.2037 136.824 98.4956 136.979 98.7881 137.134L98.7884 137.134L98.7885 137.134L98.7886 137.135L98.7888 137.135L98.7889 137.135L98.789 137.135L98.7892 137.135L98.7893 137.135L98.7895 137.135L98.7896 137.135L98.7897 137.135L98.7899 137.135L98.79 137.135L98.7901 137.135L98.7903 137.135L98.7904 137.135L98.7906 137.135L98.7907 137.136C98.9679 137.23 99.1453 137.324 99.3273 137.406C99.7984 137.617 100.274 137.817 100.75 138.018L100.751 138.018C100.999 138.123 101.248 138.228 101.495 138.334C101.819 138.473 101.878 138.654 101.576 138.889C101.42 139.01 101.264 139.131 101.107 139.252C100.701 139.565 100.296 139.878 99.8965 140.2C98.7906 141.091 98.2342 142.328 98.0818 143.669C97.9765 144.595 98.0794 145.614 98.3753 146.496C98.6091 147.192 99.0873 147.818 99.5534 148.428L99.5536 148.428L99.5538 148.428L99.554 148.429L99.5575 148.433C99.6397 148.541 99.7214 148.648 99.8014 148.755C100.406 149.563 101.267 150.042 102.124 150.519L102.124 150.519L102.124 150.519C102.369 150.655 102.614 150.791 102.852 150.935C103.403 151.267 104.042 151.471 104.663 151.664C104.967 151.758 105.283 151.816 105.599 151.874L105.599 151.874L105.599 151.874L105.599 151.874L105.599 151.874L105.599 151.874L105.599 151.874L105.599 151.874L105.6 151.874L105.6 151.874L105.6 151.874L105.6 151.874L105.6 151.874L105.6 151.874L105.6 151.874L105.6 151.874L105.6 151.874L105.6 151.875L105.6 151.875L105.6 151.875L105.6 151.875C105.853 151.921 106.106 151.968 106.354 152.033C106.58 152.092 106.801 152.176 107.021 152.259L107.021 152.259C107.226 152.337 107.431 152.415 107.641 152.473C108.02 152.579 108.404 152.665 108.788 152.751C108.98 152.794 109.171 152.837 109.362 152.883C109.363 152.883 109.364 152.884 109.364 152.885C109.365 152.886 109.365 152.887 109.366 152.889L109.367 152.893L109.367 152.899L109.368 152.906L109.368 152.906L109.368 152.907L109.368 152.907C109.369 152.922 109.37 152.939 109.378 152.944C109.633 153.147 109.993 154.672 109.894 154.967C109.714 155.503 109.562 156.048 109.409 156.592L109.379 156.703C109.346 156.82 109.325 156.944 109.304 157.067C109.266 157.29 109.229 157.511 109.122 157.692L109.02 157.865C108.55 158.66 108.076 159.462 107.492 160.17C106.912 160.873 106.234 161.536 105.37 161.905C105.201 161.977 105.056 162.089 104.909 162.201C104.609 162.431 104.303 162.666 103.774 162.573C103.49 162.523 103.142 162.833 102.796 163.141L102.795 163.141C102.643 163.277 102.49 163.413 102.343 163.517C102.308 163.542 102.281 163.58 102.254 163.618C102.242 163.635 102.23 163.652 102.217 163.668C102.229 163.671 102.24 163.675 102.251 163.679L102.279 163.69C102.322 163.706 102.365 163.722 102.408 163.722C102.557 163.724 102.706 163.72 102.855 163.716H102.855H102.856H102.856H102.856C103.163 163.707 103.469 163.699 103.768 163.742C104.059 163.784 104.578 164.026 104.565 164.118C104.496 164.598 104.468 165.08 104.439 165.563L104.439 165.563C104.394 166.337 104.349 167.114 104.134 167.89C103.998 168.378 103.777 168.816 103.558 169.252C103.392 169.583 103.227 169.912 103.099 170.26C102.764 171.176 101.945 171.981 101.183 172.663C100.531 173.246 99.8091 173.75 99.0869 174.255L99.0869 174.255L99.0868 174.255L99.0868 174.255L99.0867 174.255L99.0867 174.255L99.0866 174.255L99.0866 174.255L99.0865 174.255L99.0865 174.255L99.0865 174.255L99.0864 174.255L99.0864 174.255L99.0863 174.255L99.0863 174.255L99.0862 174.255L99.0862 174.255L99.0861 174.255L99.0861 174.256L99.086 174.256L99.086 174.256C98.7254 174.507 98.3647 174.759 98.0128 175.021C97.5947 175.333 97.185 175.656 96.7752 175.979L96.7749 175.979C96.5367 176.167 96.2985 176.355 96.0586 176.54L95.987 176.596C95.6197 176.878 95.2519 177.162 94.8755 177.434C94.7227 177.544 94.5723 177.66 94.4217 177.776C94.0278 178.08 93.6331 178.384 93.1929 178.589C92.4854 178.916 92.0494 179.453 92.055 180.135C92.059 180.635 92.1946 181.132 92.3305 181.631C92.3984 181.88 92.4664 182.129 92.5181 182.379C92.5491 182.529 92.5512 182.684 92.5533 182.84C92.5542 182.911 92.5552 182.983 92.559 183.053C92.4155 183.049 92.2676 183.056 92.1197 183.062C91.786 183.077 91.4522 183.092 91.1684 182.98C90.8279 182.846 90.5201 182.634 90.2111 182.42C89.9947 182.271 89.7777 182.121 89.5485 181.997C88.7233 181.553 88.2697 180.798 87.835 180.034C87.5241 179.486 87.265 178.907 87.0076 178.332L86.9724 178.253L86.944 178.19C86.842 177.966 86.7116 177.679 86.7908 177.524C87.0503 177.019 87.3916 176.547 87.7534 176.106C88.4709 175.229 89.2109 174.37 89.9509 173.512L89.9513 173.511L90.208 173.214C90.3139 173.09 90.4174 172.964 90.5211 172.837C90.8211 172.471 91.1222 172.103 91.4855 171.815C92.4805 171.027 93.2783 170.099 93.9769 169.045C94.5207 168.223 94.7342 167.396 94.5312 166.444C94.5184 166.383 94.5583 166.312 94.5984 166.24C94.6171 166.207 94.6359 166.174 94.6493 166.141L94.3824 166.073L94.1372 166.011L94.1347 166.01L94.1322 166.01L94.1297 166.009L93.8657 165.942L93.6111 165.877C93.5946 165.947 93.5716 166.018 93.5487 166.089L93.5486 166.089L93.5486 166.089L93.5485 166.089L93.5485 166.089L93.5484 166.09L93.5484 166.09L93.5484 166.09L93.5483 166.09L93.5483 166.09L93.5482 166.09C93.4981 166.245 93.4479 166.4 93.4633 166.548C93.5847 167.708 93.2151 168.574 92.337 169.416C91.2114 170.496 90.1783 171.673 89.1457 172.85C88.8022 173.242 88.4587 173.633 88.1119 174.021C87.9275 174.227 87.7332 174.422 87.5396 174.615C86.8758 175.279 86.2197 175.935 85.9924 177.032C85.8189 177.87 86.0299 178.484 86.2487 179.121ZM118.613 152.627H118.612C118.321 152.648 118.028 152.67 117.734 152.688C113.297 152.944 108.269 151.631 107.915 151.466C107.527 151.287 107.104 151.185 106.681 151.084L106.68 151.084C106.512 151.044 106.344 151.003 106.179 150.958C106.036 150.919 105.892 150.884 105.748 150.848L105.747 150.848C105.521 150.792 105.296 150.736 105.074 150.667C104.476 150.483 103.883 150.287 103.293 150.081C103.081 150.007 102.877 149.902 102.685 149.785C102.545 149.698 102.401 149.616 102.257 149.533L102.257 149.532C101.856 149.301 101.454 149.07 101.122 148.764C100.792 148.46 100.554 148.05 100.32 147.648C100.277 147.574 100.234 147.501 100.191 147.428C99.9334 146.996 99.6993 146.54 99.5114 146.077C98.7213 144.129 99.7109 142.025 100.126 141.349C100.652 140.494 101.631 140.024 102.429 139.88C103.113 139.756 104.018 139.728 104.847 140.014C105.418 140.211 105.915 140.509 106.409 140.806C106.703 140.982 106.995 141.158 107.302 141.311C108.333 141.828 109.256 142.497 110.171 143.161L110.171 143.161L110.279 143.239C110.807 143.622 111.261 144.105 111.716 144.589L111.716 144.589C111.995 144.887 112.275 145.185 112.572 145.46C113.033 145.887 113.531 146.274 114.028 146.661L114.028 146.661L114.028 146.662L114.028 146.662L114.028 146.662L114.028 146.662L114.028 146.662L114.028 146.662L114.028 146.662L114.028 146.662L114.029 146.662L114.029 146.662L114.029 146.662L114.029 146.662L114.029 146.662L114.029 146.662L114.029 146.663L114.029 146.663L114.029 146.663L114.029 146.663L114.03 146.663L114.03 146.663L114.03 146.663C114.148 146.755 114.265 146.846 114.382 146.938C114.505 147.035 114.627 147.135 114.748 147.236L114.749 147.236C115.117 147.54 115.486 147.845 115.902 148.057C116.429 148.326 116.995 148.519 117.561 148.711C117.743 148.772 117.924 148.834 118.104 148.898C118.54 149.054 118.981 149.201 119.43 149.311C119.48 149.323 119.53 149.336 119.581 149.349L119.581 149.349C119.932 149.438 120.295 149.53 120.642 149.501C121.652 149.419 121.699 149.383 122.54 148.744L122.682 148.636C122.784 148.559 122.953 148.503 123.072 148.527C123.768 148.673 124.483 148.848 124.934 149.428C125.032 149.554 124.798 150.065 124.592 150.277L124.477 150.396C123.862 151.031 123.262 151.653 122.37 152.019C121.596 152.337 120.864 152.518 120.051 152.541C119.57 152.555 119.093 152.59 118.613 152.627L118.613 152.627ZM96.627 133.491L96.627 133.491C96.6227 133.418 96.6184 133.346 96.6101 133.276C96.5725 132.963 96.5394 132.649 96.5063 132.335C96.4927 132.207 96.4791 132.078 96.4652 131.949C96.5441 131.297 96.6136 130.786 96.7047 130.279C96.7211 130.188 96.7348 130.095 96.7486 130.002C96.7931 129.704 96.838 129.401 96.9704 129.147C97.1211 128.858 97.3098 128.588 97.4986 128.318L97.4986 128.318L97.4987 128.318L97.4987 128.318L97.4987 128.318L97.4988 128.318L97.4988 128.318L97.4989 128.318L97.4989 128.318L97.499 128.318L97.499 128.317L97.4991 128.317L97.4991 128.317L97.4992 128.317L97.4992 128.317L97.4993 128.317L97.4993 128.317L97.4993 128.317L97.4994 128.317L97.4994 128.317L97.4995 128.317L97.4996 128.316C97.6809 128.057 97.8623 127.798 98.0102 127.521C98.5138 126.578 99.3879 126.112 100.25 125.652C100.481 125.529 100.711 125.406 100.934 125.274C101.41 124.992 102.004 124.899 102.59 124.807C102.778 124.778 102.965 124.749 103.148 124.713C103.629 124.62 104.127 124.562 104.616 124.572C105.399 124.587 106.153 124.767 106.92 124.959C107.963 125.221 108.8 125.757 109.567 126.44C109.724 126.58 109.815 126.793 109.906 127.007C109.951 127.111 109.995 127.215 110.048 127.312C110.156 127.511 110.266 127.709 110.376 127.907L110.376 127.907L110.376 127.907L110.377 127.907L110.377 127.907L110.377 127.907L110.377 127.908L110.377 127.908L110.377 127.908L110.377 127.908L110.377 127.908L110.377 127.908L110.377 127.908L110.377 127.908L110.377 127.908L110.377 127.908L110.377 127.908L110.377 127.908L110.377 127.909L110.377 127.909L110.377 127.909C110.562 128.241 110.746 128.573 110.923 128.909C111.17 129.378 110.759 129.906 110.216 129.935C109.837 129.955 107.029 130.192 106.015 131.081C105.151 131.839 104.941 132.13 104.602 132.599C104.544 132.68 104.481 132.766 104.411 132.862C104.162 133.198 103.951 134.744 104.086 135.156C104.205 135.516 104.367 135.862 104.529 136.209L104.529 136.209L104.529 136.209L104.53 136.209L104.53 136.209L104.53 136.209L104.53 136.209L104.53 136.209L104.53 136.209L104.53 136.209L104.53 136.209L104.53 136.209L104.53 136.209L104.53 136.209L104.53 136.21L104.53 136.21L104.53 136.21L104.53 136.21L104.53 136.21L104.53 136.21L104.53 136.21C104.659 136.486 104.789 136.762 104.897 137.046C104.974 137.25 104.992 137.475 105.011 137.701C105.019 137.803 105.027 137.906 105.041 138.006C104.942 138.003 104.842 138.004 104.742 138.006H104.742C104.515 138.008 104.288 138.011 104.071 137.967C103.829 137.918 103.596 137.826 103.363 137.735L103.362 137.735L103.362 137.735L103.362 137.735L103.362 137.735L103.362 137.734C103.258 137.694 103.154 137.653 103.049 137.616C102.598 137.456 102.146 137.297 101.694 137.138L101.017 136.899C100.871 136.847 100.723 136.799 100.575 136.752C100.25 136.646 99.9243 136.541 99.6179 136.396C98.4627 135.847 97.3821 135.184 96.7336 134.023C96.6497 133.873 96.6383 133.681 96.627 133.491ZM108.546 171.129C108.617 171.425 108.688 171.721 108.754 172.017C108.765 172.066 108.732 172.124 108.7 172.181C108.685 172.208 108.67 172.235 108.659 172.261C108.755 172.803 108.845 173.203 108.947 173.601C109.019 173.882 109.093 174.162 109.168 174.443L109.168 174.444L109.168 174.445L109.168 174.445L109.168 174.446L109.168 174.446L109.168 174.446L109.168 174.446L109.168 174.446L109.169 174.446L109.169 174.447L109.169 174.447L109.169 174.447L109.169 174.447L109.169 174.447L109.169 174.448L109.169 174.448L109.169 174.448L109.169 174.448L109.169 174.448L109.169 174.449L109.169 174.449L109.169 174.449C109.311 174.986 109.454 175.523 109.58 176.064C109.65 176.365 109.684 176.691 109.654 176.997C109.575 177.82 110.525 179.606 111.283 179.729C111.799 179.814 112.329 179.806 112.861 179.798H112.861H112.861H112.861H112.861H112.861H112.861H112.861H112.861H112.861H112.861H112.861H112.861H112.861H112.861H112.862H112.862H112.862H112.862H112.862H112.862C113.19 179.793 113.519 179.788 113.846 179.805C114.102 179.818 114.381 179.939 114.586 180.094C114.651 180.143 114.569 180.52 114.449 180.65C114.168 180.956 113.846 181.236 113.502 181.467C112.283 182.287 110.892 182.274 109.505 182.227C108.28 182.185 107.162 181.904 106.418 180.788C106.069 180.264 105.699 179.753 105.33 179.243L105.33 179.242L105.33 179.242L105.329 179.241L105.329 179.241C105.101 178.925 104.873 178.61 104.65 178.292C104.463 178.024 104.281 177.753 104.098 177.483L104.098 177.482L104.098 177.482L104.098 177.482L104.098 177.482L104.098 177.481L104.098 177.481L104.097 177.481L104.097 177.481L104.097 177.481L104.097 177.481L104.097 177.481L104.097 177.481L104.097 177.48L104.097 177.48L104.097 177.48L104.097 177.48L104.097 177.48L104.096 177.48L104.096 177.48L104.096 177.479C103.874 177.149 103.652 176.819 103.42 176.494C103.245 176.25 103.059 176.011 102.873 175.772L102.873 175.772C102.473 175.257 102.073 174.743 101.784 174.173C101.633 173.876 101.936 173.214 102.214 172.862C102.51 172.488 102.846 172.144 103.181 171.8L103.181 171.8C103.564 171.407 103.946 171.015 104.269 170.578C104.425 170.368 104.479 170.079 104.533 169.792C104.589 169.49 104.645 169.19 104.818 168.986C105.259 168.467 105.265 167.888 105.271 167.32C105.274 167.075 105.276 166.832 105.314 166.596C105.368 166.253 105.419 165.909 105.47 165.564L105.47 165.564C105.576 164.842 105.683 164.118 105.825 163.405C105.878 163.144 106.157 162.923 106.426 162.71C106.516 162.639 106.605 162.569 106.683 162.499C106.719 162.467 106.994 162.593 107.029 162.692C107.15 163.025 107.242 163.375 107.291 163.727C107.35 164.145 107.399 164.565 107.449 164.985L107.449 164.985L107.449 164.985L107.449 164.986L107.449 164.986L107.449 164.986L107.449 164.986L107.449 164.986L107.449 164.987L107.449 164.987L107.449 164.987L107.449 164.987L107.449 164.988L107.449 164.988L107.449 164.988L107.449 164.988L107.449 164.989L107.449 164.989L107.449 164.989C107.514 165.54 107.578 166.09 107.664 166.637C107.709 166.922 107.787 167.201 107.866 167.48C107.935 167.724 108.004 167.97 108.05 168.218C108.096 168.467 108.118 168.72 108.14 168.973C108.163 169.237 108.186 169.5 108.237 169.759C108.326 170.218 108.436 170.674 108.546 171.129ZM107.739 137.991C107.47 138.07 107.029 137.852 106.779 137.638C106.557 137.448 106.391 137.192 106.224 136.937L106.224 136.937C106.153 136.827 106.081 136.716 106.005 136.612C105.938 136.511 105.871 136.416 105.807 136.323L105.807 136.323L105.805 136.321L105.805 136.32C105.595 136.018 105.408 135.751 105.304 135.455C105.241 135.275 105.24 135.074 105.24 134.872C105.24 134.71 105.24 134.548 105.208 134.394C105.057 133.682 105.442 133.237 105.839 132.778C105.897 132.71 105.956 132.643 106.013 132.574C106.473 132.019 107.038 131.608 107.663 131.295C108.021 131.116 108.455 131.041 108.861 131.015C109.122 130.998 109.386 131.009 109.65 131.021H109.65H109.65H109.651H109.651H109.651H109.651H109.651H109.651H109.651H109.651H109.651H109.651H109.651H109.651H109.651H109.651H109.651H109.652H109.652H109.652C110.034 131.038 110.414 131.054 110.78 130.985C111.188 130.907 111.316 131.1 111.451 131.318C111.577 131.52 111.655 131.784 111.662 132.023C111.68 132.655 111.658 133.289 111.625 133.921C111.622 133.971 111.568 134.016 111.512 134.063C111.458 134.108 111.402 134.154 111.394 134.206C111.197 135.416 110.456 136.327 109.618 137.104C109.131 137.557 108.401 137.795 107.739 137.991ZM116.372 147.044L116.35 147.068C116.344 147.074 116.339 147.079 116.334 147.084C116.229 146.993 116.126 146.904 116.027 146.817C115.616 146.46 115.245 146.138 114.856 145.838C114.758 145.762 114.638 145.712 114.519 145.663C114.389 145.609 114.26 145.556 114.159 145.468C113.817 145.173 113.487 144.866 113.157 144.558L113.156 144.557L113.156 144.557C112.876 144.296 112.596 144.036 112.31 143.783C111.723 143.265 111.121 142.764 110.513 142.271C110.385 142.168 110.259 142.063 110.132 141.957C109.701 141.598 109.269 141.239 108.793 140.953C108.343 140.683 107.863 140.461 107.382 140.24L107.382 140.24L107.381 140.24L107.381 140.24L107.381 140.239L107.38 140.239L107.38 140.239L107.379 140.239L107.379 140.239L107.378 140.238L107.378 140.238L107.378 140.238L107.377 140.238L107.377 140.237L107.376 140.237C107.088 140.104 106.799 139.971 106.517 139.828C106.202 139.667 105.907 139.469 105.613 139.272L105.613 139.272L105.613 139.272L105.613 139.272L105.613 139.272L105.612 139.272L105.612 139.272L105.612 139.272L105.612 139.272L105.612 139.272L105.612 139.272L105.612 139.272L105.612 139.272L105.612 139.272L105.612 139.272L105.612 139.272L105.612 139.272L105.612 139.271L105.612 139.271L105.612 139.271L105.611 139.271L105.478 139.182C105.471 139.178 105.568 138.926 105.632 138.919C105.864 138.89 106.098 138.849 106.333 138.807L106.334 138.807C106.94 138.7 107.548 138.593 108.108 138.712C108.899 138.881 109.698 139.165 110.448 139.681C111.684 140.532 112.776 141.505 113.813 142.561C114.953 143.721 116.078 144.896 117.202 146.072L117.615 146.502C118.113 147.023 118.596 147.557 119.08 148.092C119.123 148.14 119.154 148.265 119.124 148.304L119.124 148.304C119.026 148.433 118.857 148.656 118.789 148.632C118.565 148.553 118.362 148.405 118.165 148.262L118.129 148.236C117.832 148.02 117.536 147.802 117.241 147.583L117.24 147.582C116.971 147.383 116.702 147.184 116.432 146.988C116.428 146.985 116.4 147.014 116.372 147.044ZM245.656 182.022C245.528 182.027 245.392 182.046 245.256 182.065C244.958 182.108 244.659 182.15 244.436 182.04C244.421 182.033 244.379 182.012 244.31 181.977C242.072 180.848 211.915 165.634 181.15 156.272C154.484 148.158 126.477 145.86 125.275 145.762L125.275 145.762H125.274L125.24 145.759C125.112 145.748 153.704 145.04 181.571 153.396C213.608 163.003 245.522 181.861 245.656 182.022ZM145.708 128.815C145.742 128.501 145.776 128.183 145.815 127.861C145.794 127.775 145.774 127.692 145.754 127.61C145.664 127.232 145.582 126.891 145.454 126.567C145.436 126.523 145.419 126.478 145.402 126.433C145.206 125.926 145.009 125.418 144.351 125.26C144.206 125.225 144.082 125.114 143.956 125.001C143.853 124.907 143.748 124.813 143.629 124.759C143.281 124.602 142.902 124.493 142.526 124.427C142.335 124.394 142.14 124.389 141.945 124.384C141.752 124.379 141.56 124.375 141.372 124.343C141.036 124.285 140.701 124.213 140.366 124.14C139.852 124.029 139.337 123.918 138.817 123.861C138.616 123.839 138.416 123.82 138.216 123.801C137.657 123.748 137.099 123.695 136.542 123.577C136.026 123.468 135.49 123.453 134.954 123.438C134.783 123.433 134.612 123.428 134.442 123.42C134.364 123.416 134.284 123.442 134.204 123.468C134.115 123.496 134.027 123.524 133.944 123.512C133.354 123.423 132.766 123.315 132.177 123.208C132.028 123.181 131.878 123.153 131.728 123.126C131.466 123.079 131.206 123.083 130.943 123.087C130.649 123.092 130.351 123.096 130.044 123.029C129.515 122.915 128.964 122.911 128.409 122.907C128.036 122.904 127.661 122.901 127.289 122.864C126.522 122.789 125.745 122.807 124.968 122.825H124.968H124.968H124.967H124.967H124.967H124.967H124.967H124.967H124.967H124.967H124.967H124.966H124.966H124.966H124.966H124.966C124.649 122.832 124.332 122.84 124.015 122.841C123.547 122.842 122.964 123.382 122.931 123.841C122.921 123.971 122.929 124.115 122.936 124.258C122.951 124.558 122.966 124.857 122.826 125.034C122.471 125.483 122.52 125.965 122.568 126.45C122.608 126.847 122.648 127.246 122.466 127.629C122.285 128.008 122.308 128.464 122.331 128.919C122.342 129.141 122.353 129.363 122.34 129.576C122.319 129.934 122.287 130.293 122.255 130.651V130.651V130.651V130.651V130.651V130.651V130.652V130.652V130.652V130.652V130.652V130.652V130.652V130.652V130.652V130.652V130.653V130.653V130.653C122.192 131.356 122.129 132.059 122.149 132.766C122.152 132.861 122.177 132.958 122.202 133.054C122.233 133.175 122.265 133.295 122.25 133.411C122.189 133.905 122.115 134.398 122.04 134.891L122.04 134.891L122.04 134.892C121.978 135.303 121.915 135.714 121.861 136.126C121.822 136.423 121.823 136.72 121.825 137.019V137.019C121.828 137.401 121.83 137.786 121.746 138.178C121.649 138.631 121.647 139.101 121.645 139.575C121.643 139.932 121.642 140.292 121.599 140.649C121.544 141.109 121.553 141.573 121.562 142.039C121.575 142.667 121.587 143.298 121.443 143.926C121.354 144.314 121.33 144.717 121.307 145.12V145.12V145.12V145.121V145.121V145.121V145.121V145.121V145.121V145.121V145.121V145.121V145.121V145.121V145.121V145.121V145.121V145.122V145.122V145.122C121.292 145.38 121.276 145.639 121.244 145.894C121.232 145.988 121.172 146.094 121.116 146.192C121.049 146.309 120.989 146.415 121.024 146.478C121.135 146.677 121.399 146.83 121.63 146.916C122.261 147.149 123.11 146.842 123.146 146.394C123.162 146.194 123.185 145.993 123.208 145.791L123.208 145.791L123.208 145.791L123.208 145.791L123.208 145.79L123.208 145.79C123.268 145.263 123.329 144.734 123.264 144.222C123.204 143.745 123.313 143.303 123.42 142.863C123.512 142.49 123.603 142.119 123.59 141.731C123.586 141.611 123.731 141.384 123.814 141.381C124.891 141.335 125.968 141.308 127.046 141.302C127.43 141.3 127.814 141.311 128.198 141.322H128.198H128.199H128.199H128.199H128.199H128.199H128.199H128.199H128.199H128.199H128.199H128.199H128.199H128.199H128.199H128.199H128.2H128.2C128.621 141.334 129.043 141.346 129.464 141.341C129.907 141.335 130.35 141.316 130.793 141.298H130.793H130.793H130.793H130.793H130.794H130.794H130.794H130.794H130.794H130.795H130.795H130.795H130.795H130.795H130.795H130.796H130.796H130.796C131.51 141.267 132.223 141.237 132.935 141.262C133.382 141.277 133.827 141.368 134.272 141.459C134.582 141.522 134.892 141.585 135.205 141.623C135.398 141.646 135.591 141.651 135.785 141.655H135.786H135.786H135.786H135.786H135.786H135.786H135.786H135.786H135.786H135.786H135.786H135.787H135.787H135.787H135.787H135.787H135.787C136.103 141.663 136.421 141.67 136.739 141.759C136.926 141.812 137.129 141.805 137.332 141.799C137.521 141.793 137.71 141.787 137.887 141.828C138.178 141.895 138.46 141.997 138.743 142.1L138.743 142.1L138.743 142.1L138.743 142.1L138.743 142.1L138.743 142.1L138.743 142.1L138.743 142.1L138.743 142.1L138.743 142.1L138.744 142.1L138.744 142.1L138.744 142.1L138.744 142.1L138.744 142.1L138.744 142.1L138.744 142.1C138.986 142.188 139.228 142.276 139.476 142.341C139.759 142.416 140.052 142.456 140.345 142.495L140.345 142.495C140.493 142.515 140.64 142.534 140.786 142.559C140.916 142.58 141.053 142.619 141.189 142.657C141.483 142.74 141.776 142.823 142.004 142.734C142.454 142.561 142.895 142.172 143.157 141.759C143.423 141.34 143.532 140.805 143.634 140.3L143.634 140.3L143.649 140.225C143.681 140.071 143.664 139.899 143.647 139.73C143.626 139.509 143.605 139.293 143.693 139.131C143.96 138.64 144.03 138.116 144.101 137.594L144.101 137.593L144.101 137.593L144.101 137.593L144.101 137.593L144.101 137.592L144.101 137.592L144.101 137.592L144.101 137.592L144.101 137.591L144.101 137.591L144.101 137.591L144.101 137.591L144.101 137.59L144.101 137.59L144.101 137.59L144.101 137.59L144.101 137.589C144.136 137.334 144.17 137.079 144.227 136.829C144.255 136.708 144.24 136.567 144.227 136.43C144.208 136.249 144.19 136.075 144.272 135.967C144.635 135.485 144.687 134.936 144.739 134.385C144.772 134.039 144.805 133.692 144.915 133.361C145.068 132.906 145.155 132.415 145.243 131.924C145.281 131.711 145.319 131.498 145.362 131.288C145.528 130.484 145.616 129.663 145.708 128.815ZM143.075 137.374C142.978 137.874 142.881 138.371 142.659 138.835C142.647 138.941 142.64 139.037 142.633 139.127V139.127C142.615 139.367 142.601 139.554 142.522 139.707C142.398 139.946 142.382 140.223 142.366 140.499C142.34 140.949 142.314 141.398 141.821 141.676L141.797 141.69L141.756 141.714C141.599 141.805 141.418 141.909 141.278 141.879C141.136 141.847 141.004 141.773 140.871 141.698C140.732 141.62 140.593 141.543 140.445 141.515C140.183 141.466 139.915 141.445 139.648 141.424L139.648 141.424C139.341 141.401 139.034 141.377 138.737 141.31C138.484 141.254 138.241 141.152 137.999 141.051L137.999 141.051L137.998 141.051L137.998 141.051L137.998 141.051L137.998 141.051L137.998 141.051L137.998 141.051L137.998 141.051L137.998 141.05L137.998 141.05L137.998 141.05L137.998 141.05L137.998 141.05L137.998 141.05L137.998 141.05L137.997 141.05L137.997 141.05L137.997 141.05C137.75 140.947 137.502 140.843 137.244 140.787C136.916 140.716 136.577 140.691 136.239 140.667C135.975 140.647 135.711 140.628 135.452 140.587C133.227 140.234 130.994 140.287 128.761 140.34C127.423 140.372 126.085 140.404 124.749 140.348C124.286 140.329 123.897 140.304 123.863 139.712C123.851 139.5 123.813 139.278 123.775 139.056C123.697 138.599 123.619 138.145 123.769 137.784C124.087 137.024 124.049 136.273 124.012 135.526C123.996 135.212 123.98 134.898 123.991 134.585C124.091 131.636 124.118 128.684 124.141 125.732C124.141 125.689 124.141 125.646 124.141 125.603C124.142 125.12 124.143 124.673 124.499 124.27C124.704 124.039 124.885 123.953 125.201 123.976C125.573 124.002 125.946 124.008 126.319 124.013H126.319H126.319H126.319H126.319H126.319H126.319H126.319H126.319H126.319H126.32H126.32H126.32H126.32H126.32H126.32H126.32H126.32H126.32H126.32C126.743 124.019 127.167 124.025 127.587 124.062C128.009 124.099 128.428 124.165 128.847 124.231C129.289 124.3 129.73 124.369 130.174 124.406C130.459 124.429 130.755 124.408 131.049 124.387C131.506 124.355 131.958 124.323 132.359 124.457C133.171 124.727 133.991 124.747 134.809 124.766C135.233 124.777 135.657 124.787 136.079 124.832C136.406 124.867 136.751 124.841 137.092 124.815C137.606 124.776 138.112 124.737 138.543 124.908C139.252 125.19 139.96 125.195 140.658 125.2H140.658C140.935 125.202 141.21 125.204 141.483 125.223C142.634 125.304 143.633 125.633 144.271 126.475C144.642 126.965 144.999 127.775 144.532 128.536C144.492 128.603 144.502 128.699 144.513 128.798C144.519 128.853 144.525 128.909 144.522 128.961C144.509 129.205 144.511 129.456 144.514 129.707C144.52 130.283 144.527 130.859 144.333 131.357C144.148 131.835 144.059 132.325 143.971 132.814L143.971 132.814L143.971 132.814L143.971 132.814L143.971 132.815L143.971 132.815L143.971 132.815L143.97 132.815L143.97 132.815L143.97 132.815L143.97 132.816L143.97 132.816L143.97 132.816L143.97 132.816L143.97 132.816L143.97 132.816L143.97 132.816L143.97 132.817L143.97 132.817C143.896 133.228 143.822 133.638 143.69 134.038C143.599 134.318 143.601 134.632 143.603 134.945C143.605 135.298 143.607 135.648 143.474 135.941C143.265 136.402 143.17 136.889 143.075 137.374ZM122.484 140.468C122.465 140.448 122.446 140.429 122.431 140.413C122.697 140.44 122.997 140.494 123.06 140.647C123.13 140.813 123.119 141.013 123.109 141.212L123.109 141.213C123.105 141.297 123.101 141.382 123.102 141.464C123.098 141.464 123.094 141.464 123.089 141.464C123.083 141.465 123.076 141.465 123.069 141.466C123.059 141.467 123.048 141.468 123.037 141.47C122.987 141.476 122.937 141.482 122.916 141.461C122.885 141.43 122.863 141.383 122.842 141.338C122.815 141.281 122.789 141.226 122.746 141.211C122.251 141.034 122.238 141.001 122.561 140.559C122.567 140.551 122.525 140.509 122.484 140.468ZM175.941 194.138C176.32 194.312 176.667 194.489 177.005 194.662L177.005 194.662C177.177 194.75 177.347 194.837 177.518 194.922C177.646 194.985 177.78 195.039 177.914 195.093C178.136 195.182 178.356 195.27 178.546 195.402C178.782 195.565 178.979 195.784 179.176 196.002L179.247 196.08C179.266 196.102 179.286 196.123 179.305 196.144L179.325 196.165L179.362 196.206C179.391 196.237 179.371 196.381 179.348 196.388C179.292 196.405 179.233 196.427 179.173 196.45C179.01 196.513 178.841 196.577 178.715 196.531C178.509 196.454 178.297 196.392 178.084 196.329C177.453 196.144 176.823 195.959 176.353 195.381C175.971 194.91 175.443 194.52 174.908 194.227C174.667 194.097 174.227 194.289 174.128 194.689C173.877 195.698 171.135 199.699 167.029 199.699C162.924 199.699 156.465 199.276 154.748 197.214C152.335 194.318 153.265 188.787 153.354 188.254L153.359 188.225C153.388 188.044 153.254 187.816 153.141 187.647C153.106 187.595 152.862 187.625 152.758 187.69C152.443 187.889 152.137 188.101 151.83 188.313L151.83 188.313L151.829 188.314L151.829 188.314L151.829 188.314L151.828 188.314L151.828 188.314L151.828 188.314L151.828 188.315L151.827 188.315L151.827 188.315L151.827 188.315L151.827 188.315L151.826 188.316L151.826 188.316L151.826 188.316L151.825 188.316L151.825 188.316C151.7 188.403 151.575 188.489 151.449 188.575C151.308 188.671 151.168 188.769 151.028 188.867L151.027 188.868L151.026 188.868L151.025 188.869C150.642 189.137 150.258 189.406 149.851 189.629C149.726 189.698 149.52 189.631 149.327 189.568C149.27 189.55 149.214 189.532 149.162 189.518C149.052 189.487 148.949 189.434 148.846 189.381C148.8 189.357 148.753 189.333 148.706 189.311C148.79 189.236 148.872 189.158 148.954 189.08L148.954 189.079C149.135 188.906 149.317 188.732 149.522 188.595C149.801 188.41 150.094 188.244 150.386 188.079C150.599 187.958 150.812 187.838 151.019 187.71C151.557 187.377 152.088 187.03 152.611 186.676C152.675 186.632 152.74 186.59 152.805 186.547C153.073 186.371 153.344 186.193 153.553 185.963C154.441 184.981 155.439 184.149 156.475 183.322C156.957 182.938 157.484 182.675 158.009 182.413C158.377 182.229 158.744 182.046 159.093 181.822C159.338 181.666 159.648 181.614 159.96 181.562C160.131 181.533 160.303 181.504 160.465 181.458C160.777 181.368 161.087 181.269 161.397 181.17C161.627 181.096 161.858 181.023 162.089 180.953C162.154 180.934 162.227 180.936 162.299 180.939L162.3 180.939L162.335 180.94C162.346 180.94 162.358 180.94 162.37 180.94C162.655 180.94 162.942 180.932 163.228 180.925L163.229 180.925H163.229C163.902 180.907 164.575 180.889 165.235 180.97C165.648 181.022 166.044 181.215 166.44 181.409C166.617 181.496 166.795 181.583 166.975 181.657C166.972 181.662 166.969 181.667 166.967 181.672L166.962 181.682L166.956 181.695L166.948 181.712C166.932 181.751 166.915 181.789 166.89 181.797C165.938 182.061 165.008 182.217 164.032 181.768C163.731 181.629 163.328 181.68 162.952 181.727C162.876 181.737 162.802 181.746 162.73 181.754C162.379 181.791 162.032 181.877 161.687 181.963L161.687 181.963L161.568 181.993C161.53 182.002 161.492 182.011 161.454 182.02C161.415 182.03 161.376 182.039 161.337 182.048L161.238 182.07C160.971 182.129 160.702 182.189 160.46 182.303C159.588 182.713 158.725 183.148 157.875 183.607C157.595 183.758 157.326 183.932 157.058 184.105L157.058 184.105L157.058 184.105L157.058 184.105L157.058 184.105L157.058 184.105L157.057 184.105L157.057 184.105L157.057 184.105L157.057 184.105L157.057 184.105L157.057 184.106L157.057 184.106L157.056 184.106L157.056 184.106L157.056 184.106L157.056 184.106C156.812 184.264 156.568 184.421 156.314 184.562C156.175 184.64 156.025 184.701 155.874 184.762C155.485 184.919 155.097 185.075 154.907 185.529C154.892 185.564 154.848 185.587 154.803 185.61C154.791 185.616 154.779 185.623 154.768 185.629L154.759 185.634C154.755 185.636 154.752 185.639 154.748 185.641C154.847 185.644 154.948 185.654 155.05 185.663C155.277 185.685 155.504 185.707 155.709 185.648C156.056 185.551 156.385 185.393 156.715 185.235C156.828 185.181 156.94 185.127 157.053 185.076C157.217 185.002 157.378 184.922 157.54 184.842C157.853 184.686 158.166 184.531 158.494 184.419C158.688 184.353 158.899 184.34 159.111 184.327C159.262 184.318 159.414 184.309 159.561 184.28C159.835 184.227 160.105 184.155 160.376 184.082C160.449 184.062 160.521 184.043 160.594 184.024C160.658 184.007 160.722 183.99 160.786 183.974C160.852 183.959 160.924 183.954 160.993 183.954C161.285 183.954 161.582 183.969 161.878 183.983C162.587 184.019 163.296 184.054 163.951 183.881C164.215 183.812 164.452 183.834 164.685 183.856C164.875 183.875 165.062 183.892 165.259 183.86C165.637 183.797 166.066 183.972 166.474 184.14C166.57 184.179 166.664 184.218 166.757 184.253C167.204 184.422 167.675 184.604 168.044 184.895C168.476 185.239 168.871 185.627 169.266 186.016L169.266 186.016L169.266 186.016L169.267 186.017L169.267 186.017L169.267 186.017L169.267 186.017L169.267 186.017L169.267 186.017L169.267 186.017L169.267 186.017L169.267 186.017L169.267 186.017L169.267 186.017L169.268 186.018L169.268 186.018L169.268 186.018L169.268 186.018C169.435 186.182 169.602 186.347 169.772 186.508C169.766 186.514 169.761 186.52 169.755 186.527C169.745 186.538 169.734 186.549 169.724 186.562L169.706 186.583C169.693 186.598 169.681 186.614 169.668 186.629C169.59 186.724 169.512 186.818 169.478 186.805C169.313 186.739 159.099 185.464 155.109 187.647C153.662 188.439 154.994 194.19 155.105 194.671L155.109 194.689C155.709 197.291 165.059 198.792 168.617 198.197C172.899 197.481 173.156 193.004 173.24 191.552V191.552V191.552C173.254 191.297 173.264 191.136 173.288 191.104C173.518 190.81 173.884 190.652 174.209 190.925C174.364 191.054 174.468 191.305 174.493 191.512C174.517 191.707 174.579 191.894 174.638 192.075C174.686 192.219 174.732 192.359 174.757 192.499C174.837 192.938 175.12 193.214 175.406 193.492C175.606 193.687 175.807 193.884 175.941 194.138ZM72.0244 167.336C71.8903 167.306 71.7564 167.276 71.6671 167.326C71.3552 167.5 58.091 173.435 48.8298 168.357C48.7168 168.296 48.5551 168.212 48.3613 168.112L48.3586 168.11L48.3579 168.11C47.1986 167.511 44.9015 166.323 45.0391 165.65C45.4139 163.818 50.6545 161.301 51.3367 160.973L51.3368 160.973L51.3371 160.973C51.3666 160.959 51.3876 160.949 51.3992 160.943L51.4093 160.938C51.3799 160.891 51.353 160.836 51.3262 160.781L51.3262 160.781C51.2668 160.658 51.2075 160.536 51.1196 160.51C50.8662 160.435 50.5707 160.425 50.3092 160.475C50.0037 160.533 46.68 161.274 46.0977 161.643C45.4855 162.031 43.8102 164.072 43.8409 164.731C43.8542 165.012 43.7604 165.298 43.6661 165.585C43.6167 165.736 43.5671 165.887 43.5328 166.038C43.5126 166.126 43.5087 166.222 43.5048 166.318C43.4986 166.469 43.4925 166.618 43.4222 166.729C43.3454 166.85 43.2548 167.045 43.1451 167.28C42.9296 167.743 42.64 168.364 42.2355 168.901C41.9321 169.303 41.5197 169.642 41.2062 169.899L41.2061 169.899C41.0188 170.053 40.8668 170.178 40.7945 170.27C40.751 170.325 40.6937 170.381 40.6351 170.437L40.635 170.437C40.4731 170.594 40.3014 170.76 40.3845 170.958C40.4968 171.227 40.8925 171.095 41.1053 171.024L41.1099 171.023C41.4198 170.921 41.7145 170.723 41.9675 170.509C42.322 170.21 42.6561 169.878 42.9551 169.524C43.2614 169.159 43.5605 168.775 43.7794 168.357C44.0211 167.894 44.5557 167.702 45.0391 168.035C58.6385 177.386 71.4709 168.472 72.0702 167.94C72.1524 167.867 72.1669 167.719 72.1815 167.569V167.569C72.1883 167.501 72.195 167.432 72.2083 167.37C72.15 167.365 72.0872 167.35 72.0244 167.336ZM132.643 115.563L132.642 115.564L132.641 115.564L132.641 115.565L132.641 115.565L132.641 115.565L132.641 115.565L132.641 115.565L132.641 115.565L132.64 115.565L132.64 115.565L132.64 115.566L132.64 115.566L132.64 115.566C131.974 116.223 131.321 116.868 130.704 117.545C130.487 117.784 130.352 118.097 130.217 118.409C130.158 118.544 130.1 118.679 130.035 118.808C129.686 119.501 129.17 119.762 128.263 120.155C127.738 120.383 127.189 120.6 126.704 120.505C126.363 120.438 126.021 120.443 125.684 120.448C125.311 120.454 124.943 120.46 124.59 120.367C124.161 120.254 123.69 119.885 123.474 119.499C123.286 119.165 123.496 118.73 123.87 118.371C124.282 117.974 124.638 117.519 124.993 117.063L124.993 117.063C125.199 116.8 125.404 116.536 125.621 116.284C125.854 116.013 126.084 115.741 126.314 115.469C127.075 114.569 127.837 113.668 128.669 112.84C129.357 112.155 130.213 111.713 131.223 111.43C132.141 111.171 132.842 111.235 133.663 111.586C133.969 111.717 134.323 111.736 134.677 111.754H134.677C134.85 111.764 135.022 111.773 135.19 111.795C135.725 111.866 136.042 112.37 135.698 112.615C135.393 112.832 134.825 113.046 134.57 112.905C133.173 112.13 131.779 112.313 130.411 112.833C130.046 112.972 129.744 113.289 129.447 113.601L129.447 113.601L129.447 113.601C129.352 113.7 129.258 113.799 129.163 113.891C128.43 114.599 127.7 115.312 127.005 116.056C126.736 116.344 126.506 116.669 126.276 116.993L126.276 116.994C126.191 117.114 126.106 117.233 126.019 117.351C125.961 117.43 125.903 117.508 125.845 117.586L125.845 117.587C125.552 117.982 125.258 118.378 124.986 118.787C124.783 119.092 124.809 119.149 125.126 119.25C125.918 119.503 126.691 119.453 127.479 119.167C128.44 118.817 128.993 118.084 129.567 117.323C129.638 117.23 129.708 117.136 129.78 117.043C130.248 116.433 130.816 115.9 131.385 115.367L131.385 115.366L131.385 115.366C131.633 115.134 131.88 114.901 132.12 114.663C132.162 114.621 132.205 114.58 132.248 114.539C132.325 114.467 132.402 114.394 132.472 114.316C132.82 113.924 133.172 113.548 133.765 113.579C133.792 113.581 133.819 113.547 133.847 113.511C133.869 113.483 133.893 113.454 133.918 113.438C133.956 113.414 134.001 113.401 134.046 113.389C134.066 113.383 134.086 113.378 134.105 113.371C134.103 113.38 134.102 113.39 134.102 113.399C134.1 113.41 134.1 113.421 134.099 113.433C134.096 113.478 134.093 113.523 134.074 113.56C133.879 113.953 133.677 114.343 133.442 114.77C133.174 115.038 132.908 115.302 132.643 115.563ZM138.714 109.198L138.714 109.198C139.701 108.264 140.695 107.324 141.368 106.055C141.205 106.001 141.041 105.989 140.879 105.976C140.803 105.971 140.726 105.965 140.651 105.955C140.525 105.938 140.397 105.906 140.271 105.874C140.049 105.818 139.829 105.763 139.618 105.79C139.227 105.84 138.824 106 138.485 106.208C137.988 106.514 137.459 106.757 136.929 107C136.147 107.359 135.363 107.72 134.675 108.283C134.486 108.438 134.393 108.611 134.304 108.776C134.233 108.908 134.165 109.036 134.051 109.145C134.108 109.156 134.164 109.166 134.221 109.177C134.346 109.199 134.472 109.222 134.595 109.255C134.887 109.333 135.179 109.414 135.47 109.495L135.471 109.495C135.719 109.564 135.967 109.633 136.216 109.7C136.264 109.712 136.311 109.726 136.359 109.739L136.417 109.756C136.631 109.818 136.846 109.879 137.065 109.903C137.123 109.909 137.187 109.918 137.253 109.927L137.253 109.927L137.254 109.927L137.254 109.927C137.541 109.967 137.867 110.012 138.001 109.881C138.234 109.651 138.472 109.426 138.711 109.201L138.711 109.2L138.711 109.2L138.711 109.2L138.712 109.2L138.712 109.199L138.712 109.199L138.712 109.199L138.712 109.199L138.713 109.199L138.713 109.198L138.713 109.198L138.713 109.198L138.714 109.198ZM138.716 107.105C138.74 107.115 138.764 107.125 138.785 107.131C138.946 107.012 139.181 106.98 139.251 107.073C139.343 107.196 139.389 107.516 139.313 107.578C138.824 107.976 138.314 108.356 137.772 108.677C137.564 108.8 137.253 108.781 136.993 108.763C136.912 108.758 136.757 108.508 136.788 108.434C136.8 108.404 136.814 108.372 136.827 108.338C136.934 108.078 137.071 107.742 137.231 107.721C137.727 107.657 138.096 107.408 138.475 107.153C138.512 107.128 138.55 107.103 138.587 107.078C138.613 107.061 138.664 107.083 138.716 107.105ZM161.703 154.723C160.166 154.541 158.646 154.541 157.131 154.541C156.664 154.541 156.197 154.541 155.731 154.535C155.444 154.532 155.117 154.473 154.886 154.323C154.748 154.234 154.695 153.899 154.734 153.701C154.759 153.575 155.025 153.408 155.18 153.411C155.478 153.416 155.982 153.393 156.589 153.364C158.032 153.296 160.057 153.2 161.286 153.411C164.107 153.894 165.569 155.695 165.484 155.688C165.354 155.676 165.221 155.67 165.088 155.664C164.75 155.65 164.411 155.635 164.107 155.525C163.874 155.44 163.646 155.338 163.418 155.235C162.881 154.994 162.34 154.751 161.703 154.723ZM145.621 103.891C146.168 103.674 146.19 103.351 145.671 103.042C145.523 103.083 145.392 103.129 145.269 103.173C145.126 103.223 144.994 103.27 144.857 103.301C144.562 103.366 144.265 103.425 143.969 103.484L143.969 103.484C143.518 103.573 143.068 103.663 142.623 103.776C142.465 103.816 142.235 104.079 142.255 104.206C142.288 104.429 142.438 104.639 142.579 104.837L142.623 104.899C142.649 104.936 142.838 104.88 142.939 104.837C143.067 104.783 143.193 104.723 143.318 104.662C143.521 104.565 143.724 104.467 143.936 104.396C144.172 104.317 144.413 104.253 144.654 104.189C144.982 104.103 145.309 104.016 145.621 103.891ZM147.249 102.182C147.257 101.724 147.26 101.724 147.92 101.611L147.989 101.6C148.128 101.576 148.262 101.518 148.395 101.46C148.506 101.412 148.616 101.364 148.731 101.334C148.789 101.32 148.971 101.496 148.957 101.544C148.948 101.573 148.939 101.605 148.93 101.638C148.87 101.855 148.793 102.129 148.677 102.154C148.547 102.181 148.418 102.246 148.288 102.312C147.954 102.481 147.615 102.653 147.249 102.182ZM151.072 100.44C151.126 100.434 151.179 100.428 151.23 100.424C151.628 100.352 151.639 100.104 151.65 99.8634C151.654 99.7572 151.659 99.6526 151.697 99.5653C151.638 99.576 151.578 99.5842 151.519 99.5924C151.385 99.6108 151.251 99.6293 151.127 99.6761C151.101 99.686 151.073 99.6961 151.045 99.7067C150.849 99.7782 150.609 99.8659 150.571 99.9966C150.422 100.513 150.751 100.476 151.072 100.44ZM155.677 98.7029C155.649 98.7152 155.621 98.7277 155.595 98.7399C155.476 98.7941 155.373 98.8408 155.284 98.8222C155.158 98.7956 155.039 98.7379 154.919 98.6802C154.868 98.6558 154.818 98.6313 154.767 98.6092C154.836 98.589 154.906 98.5674 154.975 98.5458L154.975 98.5457C155.134 98.4962 155.294 98.4466 155.457 98.4138C155.696 98.3656 155.752 98.4336 155.677 98.7029ZM179.427 79.4094L179.428 79.4099L179.428 79.41C179.459 79.5381 179.492 79.669 179.527 79.8023C179.566 79.9324 179.609 80.0395 179.649 80.138L179.649 80.1385C179.682 80.2199 179.712 80.2954 179.735 80.3731C180.019 81.3129 180.136 82.2718 180.114 83.2566C180.109 83.4714 180.161 83.6864 180.213 83.9023C180.252 84.0666 180.291 84.2313 180.306 84.3969C180.325 84.6018 180.32 84.8136 180.316 85.0246C180.308 85.4001 180.3 85.773 180.423 86.0996C180.614 86.6143 180.569 87.1102 180.525 87.5926C180.516 87.6845 180.508 87.7758 180.501 87.8668C180.443 88.6486 180.141 89.3259 179.315 89.7631C179.078 89.8885 178.842 89.9228 178.609 89.9566C178.401 89.9867 178.196 90.0164 177.995 90.1097C177.722 90.2371 177.425 90.2808 177.123 90.3253C176.741 90.3818 176.35 90.4394 175.99 90.6708C175.778 90.807 175.496 90.8314 175.212 90.8558C174.939 90.8794 174.665 90.9031 174.452 91.0271C173.968 91.3075 173.63 91.2805 173.237 90.9904C173.057 90.8576 172.88 90.7203 172.703 90.5828C172.54 90.4561 172.377 90.3294 172.211 90.206C172.017 90.0617 171.818 89.9234 171.611 89.7986C171.392 89.6657 171.126 89.594 170.875 89.5266C170.639 89.4631 170.417 89.4033 170.261 89.2996C169.832 89.014 169.487 89.1224 169.149 89.2282C168.99 89.278 168.833 89.3272 168.671 89.3345C168.539 89.3403 168.416 89.5394 168.293 89.7381C168.238 89.8283 168.182 89.9184 168.125 89.9904C168.212 90.0348 168.304 90.0951 168.395 90.1554C168.596 90.2889 168.797 90.4223 168.955 90.3823C169.002 90.3703 169.048 90.3579 169.093 90.3456C169.447 90.2501 169.754 90.1672 170.119 90.4073C170.284 90.5156 170.472 90.5871 170.661 90.6586C170.83 90.7225 170.999 90.7865 171.151 90.8769C171.203 90.9076 171.255 90.9382 171.307 90.969L171.309 90.9701C171.727 91.2159 172.155 91.4674 172.482 91.8077C172.991 92.3356 173.541 92.5294 174.273 92.3104C174.783 92.1572 175.3 92.0214 175.816 91.8856L175.817 91.8856L175.817 91.8855C176.215 91.7807 176.614 91.676 177.01 91.5632C177.222 91.5027 177.436 91.4473 177.65 91.392C178.56 91.1562 179.466 90.9216 180.252 90.2908C181.454 89.3237 181.493 88.0131 181.346 86.7296C181.32 86.5018 181.29 86.2741 181.259 86.046L181.259 86.0454L181.259 86.0447L181.259 86.044L181.259 86.0433L181.259 86.0426L181.259 86.0419C181.191 85.5358 181.123 85.0279 181.1 84.5136C181.081 84.104 181.092 83.6924 181.103 83.2807V83.2806C181.13 82.2613 181.157 81.2415 180.737 80.2504C180.614 79.9602 180.545 79.6476 180.476 79.3347C180.409 79.0332 180.342 78.7316 180.227 78.4496C180.019 77.9356 179.694 77.4599 179.368 77.0054L179.329 76.9502C179.112 76.6471 178.837 76.2627 178.552 76.228C178.305 76.1978 178.036 76.3465 177.767 76.4954L177.767 76.4955C177.65 76.5601 177.534 76.6247 177.419 76.6747L177.466 76.7063L177.598 76.7928L177.599 76.7932L177.599 76.7934C177.742 76.8869 177.885 76.9806 178.025 77.0781C178.101 77.1318 178.175 77.1962 178.235 77.2677C178.317 77.3648 178.405 77.4593 178.493 77.5539L178.493 77.554L178.493 77.5541L178.494 77.5544L178.494 77.5548C178.709 77.7858 178.924 78.0171 179.061 78.2876C179.233 78.6256 179.327 79.0034 179.427 79.4092L179.427 79.4094ZM167.591 93.1917L167.585 93.1797C167.536 93.1588 167.487 93.1546 167.454 93.1517C167.429 93.1496 167.413 93.1482 167.411 93.1419C167.359 92.9981 167.315 92.8517 167.271 92.7053L167.271 92.7048L167.237 92.5949C167.217 92.6609 167.191 92.7274 167.164 92.7939C167.106 92.9414 167.047 93.0889 167.058 93.2312C167.131 94.2079 167.22 95.1527 167.699 96.0805C167.915 96.498 167.998 96.9805 168.081 97.4654V97.4656C168.152 97.875 168.222 98.2862 168.374 98.6616L168.432 98.8073L168.432 98.8076C168.707 99.4918 168.98 100.17 169.114 100.893C169.164 101.164 169.105 101.482 169.01 101.748C168.9 102.058 168.676 102.306 168.452 102.556C168.114 102.932 167.774 103.31 167.818 103.904C167.822 103.957 167.772 104.015 167.722 104.072C167.698 104.1 167.674 104.127 167.656 104.154C167.691 104.141 167.727 104.13 167.763 104.118C167.846 104.092 167.93 104.067 167.996 104.018C168.037 103.989 168.061 103.939 168.085 103.888C168.108 103.841 168.131 103.793 168.168 103.763C168.275 103.679 168.382 103.598 168.488 103.517L168.488 103.517L168.489 103.516C169.124 103.032 169.734 102.567 170.019 101.657C170.269 100.862 170.183 100.242 169.906 99.5838C169.749 99.2125 169.558 98.85 169.367 98.4883C169.026 97.8408 168.686 97.1961 168.547 96.5082C168.363 95.5967 168.15 94.7054 167.871 93.8236C167.807 93.6188 167.708 93.4247 167.591 93.1917ZM187.444 123.084L187.444 123.084C187.298 123.05 187.155 123.016 187.012 122.984L186.882 122.955L186.739 122.923C186.367 122.838 185.994 122.753 185.617 122.697C185.413 122.666 185.206 122.66 184.998 122.654C184.844 122.649 184.691 122.645 184.538 122.631C184.309 122.609 184.066 122.585 183.86 122.496C183.675 122.417 183.506 122.304 183.336 122.192C183.263 122.144 183.19 122.095 183.115 122.05C183.16 122.048 183.205 122.046 183.25 122.045L183.356 122.042L183.401 122.041L183.404 122.041C183.628 122.035 183.853 122.029 184.075 122.003C184.184 121.99 184.293 121.958 184.401 121.926C184.544 121.884 184.686 121.841 184.828 121.845L184.98 121.849C185.945 121.872 186.913 121.896 187.872 121.992C188.495 122.055 189.112 122.187 189.727 122.32L189.728 122.32L189.728 122.32L189.941 122.366C190.016 122.382 190.09 122.397 190.165 122.413C190.705 122.526 191.24 122.661 191.775 122.795L191.776 122.795L191.957 122.841C192.433 122.961 192.907 123.089 193.381 123.217L193.381 123.217L193.381 123.217L193.382 123.218L193.382 123.218L193.382 123.218L193.581 123.271C193.649 123.29 193.715 123.316 193.781 123.342L193.781 123.342C193.812 123.354 193.842 123.367 193.873 123.378C193.849 123.412 193.825 123.455 193.8 123.498L193.8 123.498C193.746 123.592 193.693 123.686 193.639 123.686C193.384 123.684 193.129 123.73 192.873 123.777C192.34 123.873 191.805 123.97 191.264 123.634C191.167 123.574 191.056 123.586 190.929 123.6C190.767 123.618 190.579 123.638 190.364 123.516C189.982 123.301 189.481 123.297 188.956 123.292C188.732 123.29 188.504 123.288 188.278 123.27C187.977 123.209 187.706 123.145 187.444 123.084ZM75.0742 147.581C83.1774 146.563 89.9339 145.714 89.917 145.494C89.916 145.481 89.9271 145.444 89.9432 145.391C90.0479 145.049 90.3647 144.011 88.9672 143.993C82.9692 143.917 65.5549 145.96 49.1901 149.468C25.9711 154.229 12.5941 160.864 12.7529 161.316C12.825 161.521 18.5986 159.828 25.6844 157.749L25.6848 157.749L25.6849 157.749L25.6856 157.749L25.6859 157.749C34.1885 155.255 44.5802 152.207 49.2781 151.221L49.8015 151.112C54.282 150.194 65.5988 148.772 75.0742 147.581ZM55.3041 161.945C56.7771 161.945 58.9031 162.105 61.6235 163.027L62.3063 163.261C62.8264 163.44 63.7928 163.705 65.1934 164.052C65.5187 164.132 65.7172 164.461 65.6369 164.786C65.5565 165.111 61.4078 164.235 61.4078 164.235C58.6032 163.279 57.4839 163.018 56.1731 163.076C54.8971 163.132 52.2009 164.122 50.1534 164.874C48.7075 165.405 47.585 165.818 47.5143 165.698C47.3436 165.41 47.5456 165.044 47.7271 164.867C49.5649 163.076 50.5832 162.57 55.3041 161.945ZM155.401 151.516C155.501 151.429 155.576 151.313 155.614 151.176C155.714 150.806 152.853 150.251 150.926 150.971C150.535 151.117 150.189 151.344 149.81 151.675C149.746 151.731 149.605 151.925 149.431 152.165L149.431 152.165C149.145 152.559 148.769 153.076 148.495 153.312C148.054 153.691 147.307 154.094 146.794 154.353C146.586 154.457 145.797 154.632 144.907 154.829C143.482 155.144 141.799 155.517 141.837 155.75C141.899 156.127 142.595 156.07 142.973 156.008C143.63 155.901 144.197 155.818 144.69 155.747L144.691 155.747C145.954 155.563 146.733 155.45 147.304 155.162C147.924 154.85 148.459 154.482 148.981 154.033C149.064 153.962 149.181 153.855 149.312 153.731L149.731 153.334C149.666 153.866 149.844 154.378 150.295 154.742L150.466 154.879C155.838 159.126 161.648 159.769 167.779 156.802L167.875 156.755L167.92 156.998C168.079 157.808 168.307 158.482 168.608 159.023C169.054 159.823 169.815 160.61 170.886 161.396L171.707 160.278L171.57 160.176C170.721 159.535 170.139 158.922 169.819 158.348C169.481 157.74 169.242 156.828 169.119 155.618L169.014 154.582L168.098 155.079L167.916 155.177C161.916 158.369 156.378 157.866 151.165 153.662C151.135 153.638 151.103 153.22 151.165 153.039C151.274 152.721 151.523 152.086 152.162 151.866C152.579 151.723 155.401 151.516 155.401 151.516ZM198.781 115.03L198.493 114.509C198.276 114.12 197.995 113.622 197.855 113.392L197.81 113.32C197.244 112.443 197.141 111.332 197.286 109.533L197.346 108.868L197.402 108.289C197.565 106.507 197.524 105.827 197.198 105.476L197.148 105.426C196.823 105.112 196.444 105.116 195.073 105.421L194.739 105.496C193.156 105.859 192.108 105.947 190.898 105.659L189.852 105.399C189.729 105.369 189.607 105.34 189.493 105.312C189.357 105.279 189.232 105.248 189.129 105.223C188.984 105.188 188.883 105.163 188.859 105.157L188.575 105.084C186.079 104.431 185.029 103.728 184.636 102.027C184.543 101.621 184.581 101.201 184.728 100.678L184.762 100.564C184.857 100.248 185.322 98.995 185.322 98.9956C185.427 98.6987 185.515 98.4276 185.593 98.1552L185.693 97.8011C185.778 97.4987 185.865 97.1773 185.956 96.8337L186.903 93.1253C187.074 92.4716 187.219 91.929 187.278 91.7461L187.547 90.9555L187.66 90.635C187.734 90.4303 187.805 90.2417 187.878 90.058C188.471 88.5746 189.099 87.6587 189.985 87.4058C190.801 87.1727 191.402 87.2045 192.06 87.4668C192.197 87.5215 192.553 87.6911 192.822 87.8198L192.823 87.82C192.968 87.8893 193.088 87.9467 193.136 87.9679C193.796 88.2594 194.471 88.4447 195.386 88.5366L195.56 88.5527C196.001 88.5901 196.365 88.5418 197.441 88.3064L198.214 88.1353C199.035 87.957 199.573 87.8689 200.162 87.8322C200.697 87.7989 201.194 87.8222 201.667 87.9117C202.447 88.0591 203.642 88.5445 205.284 89.371C205.54 89.5001 205.643 89.8128 205.514 90.0693C205.385 90.3258 205.072 90.429 204.816 90.2999L204.51 90.1472C203.108 89.4551 202.088 89.0497 201.474 88.9336C201.091 88.8613 200.68 88.842 200.227 88.8702C199.669 88.9049 199.144 88.9945 198.285 89.1843L197.639 89.3278C196.492 89.5786 196.079 89.6346 195.528 89.5934L195.472 89.589C194.35 89.4937 193.519 89.2743 192.716 88.9191L191.818 88.496C191.756 88.4676 191.706 88.4453 191.675 88.4328C191.23 88.2555 190.865 88.2361 190.27 88.4058C189.811 88.5369 189.319 89.2538 188.844 90.4436C188.758 90.6592 188.674 90.8844 188.584 91.1394L188.27 92.0589C188.129 92.4667 187.108 96.5318 187.074 96.6719L186.906 97.3069C186.798 97.7143 186.694 98.0906 186.593 98.4422C186.525 98.6774 186.451 98.9103 186.368 99.1555L186.303 99.342C186.219 99.5801 186.144 99.7915 186.077 99.9795C185.608 101.303 185.552 101.463 185.588 101.599C185.593 101.618 185.6 101.636 185.608 101.657C185.619 101.688 185.632 101.724 185.645 101.775L185.65 101.793C185.935 103.03 186.727 103.54 188.979 104.115L191.023 104.619C192.051 104.885 192.945 104.829 194.343 104.519L195.229 104.319C195.819 104.188 195.968 104.171 196.308 104.158C196.988 104.13 197.534 104.31 197.96 104.769C198.582 105.438 198.64 106.201 198.439 108.367L198.336 109.457L198.311 109.763C198.205 111.201 198.289 112.093 198.646 112.695L198.758 112.875C198.864 113.052 199.025 113.334 199.184 113.615L199.69 114.525L199.758 114.642C200.434 115.807 200.992 116.459 201.585 116.685L201.648 116.707C202.406 116.956 203.344 116.462 204.554 114.891L204.71 114.687C204.894 114.461 205.08 114.318 205.941 113.785L207.269 112.969L207.429 112.868C208.259 112.342 208.747 111.951 208.856 111.729C210.126 109.136 210.936 105.088 210.692 100.486C210.661 99.9092 210.354 99.0254 209.765 97.8609L209.695 97.7232L209.662 97.7049C208.272 96.9144 207.26 96.1634 206.623 95.4393L206.548 95.3525C205.896 94.5762 205.24 93.3093 204.564 91.5407C204.461 91.2724 204.596 90.9718 204.864 90.8693C205.132 90.7667 205.433 90.9011 205.535 91.1693C206.174 92.839 206.782 94.0141 207.345 94.6834C207.863 95.3001 208.758 95.9814 210.027 96.7149L210.338 96.8919L210.473 96.9675L210.545 97.1047C211.29 98.5269 211.687 99.6247 211.73 100.431C211.984 105.208 211.139 109.433 209.79 112.187C209.561 112.654 208.999 113.104 207.986 113.747L207.734 113.905L206.659 114.565C205.766 115.117 205.587 115.25 205.465 115.411C203.979 117.381 202.616 118.119 201.324 117.695C200.356 117.378 199.639 116.535 198.781 115.03ZM214.506 83.8394C214.245 83.7191 213.936 83.8329 213.816 84.0937C213.556 84.6569 213.15 85.0106 212.569 85.1822C212.152 85.3052 211.685 85.3762 211.114 85.4135C210.915 85.4265 210.743 85.4343 210.488 85.4416L209.61 85.464C208.203 85.5099 207.589 85.6289 206.975 86.0715C206.16 86.6586 205.818 88.535 206.104 89.6157L206.119 89.6748C206.129 89.7156 206.14 89.7591 206.151 89.8067L206.186 89.9633C206.188 89.9738 206.196 90.012 206.207 90.065C206.232 90.1803 206.271 90.3652 206.296 90.4839L206.345 90.7024C206.389 90.8911 206.432 91.0594 206.481 91.2234C206.674 91.8791 206.929 92.4101 207.304 92.8477C207.356 92.908 207.501 93.1702 207.66 93.4702L208.206 94.5135C208.648 95.2914 209.107 95.857 209.687 96.2353C209.932 96.3947 210.156 96.4607 210.576 96.5364L210.762 96.5704C211.103 96.6341 211.264 96.6743 211.467 96.7535L211.624 96.8175C211.783 96.8781 211.969 96.9226 212.239 96.9697L212.432 97.0016C212.432 97.0015 212.89 97.071 213.149 97.1124L213.429 97.1602C213.696 97.2088 213.933 97.2607 214.158 97.3217C214.378 97.3812 214.582 97.4483 214.771 97.5246L214.891 97.5716C215.083 97.6437 215.243 97.6887 215.526 97.7553L215.787 97.8158C215.907 97.8439 215.992 97.866 216.069 97.8898L216.158 97.9196C216.493 98.0398 216.777 98.2501 217.132 98.6907C217.604 99.2742 217.604 99.5477 217.241 99.7983C217.005 99.9617 216.946 100.286 217.109 100.522C217.273 100.758 217.597 100.817 217.833 100.654C218.757 100.015 218.757 99.0469 217.942 98.0373C217.47 97.4533 217.031 97.1279 216.509 96.9407C216.404 96.9032 216.308 96.8741 216.189 96.8434L216.033 96.8051L215.708 96.7297C215.506 96.681 215.387 96.6466 215.253 96.5963L215.021 96.506C214.833 96.4359 214.636 96.3736 214.43 96.3178C214.123 96.2348 213.805 96.1683 213.439 96.106L212.442 95.9491C212.205 95.9083 212.06 95.8736 211.977 95.8385C211.654 95.7024 211.457 95.645 211.052 95.5669L210.691 95.5001C210.451 95.4546 210.34 95.4195 210.255 95.364C209.841 95.0939 207.62 91.4125 207.479 90.9301C207.426 90.7505 207.378 90.5604 207.328 90.3317L207.182 89.6531C207.17 89.5953 207.157 89.5421 207.145 89.4921L207.109 89.3496C206.922 88.6407 207.184 87.2027 207.583 86.9154C207.985 86.6253 208.508 86.5357 209.792 86.4991L210.525 86.481C210.789 86.4734 210.969 86.4652 211.182 86.4513L211.371 86.4375C211.931 86.3923 212.413 86.3126 212.863 86.1796C213.733 85.9228 214.375 85.3635 214.76 84.5295C214.881 84.2687 214.767 83.9598 214.506 83.8394Z" fill="#00160A"/>
<path fill-rule="evenodd" clip-rule="evenodd" d="M93.0222 137.903C93.2134 137.528 93.3765 137.201 93.6039 136.928C93.8342 136.651 94.1249 136.424 94.3991 136.187C94.4262 136.163 94.5773 136.222 94.5764 136.238C94.5721 136.321 94.5628 136.428 94.5094 136.479C94.102 136.867 94.0681 137.381 93.9435 137.888C93.8068 138.443 93.9453 138.878 94.1984 139.341C94.3671 139.65 94.4902 139.989 94.5958 140.326C94.818 141.037 95.0375 141.75 95.2152 142.472C95.3352 142.96 95.4456 143.464 95.4502 143.962C95.4736 146.472 95.4601 148.983 95.4613 151.493C95.462 152.776 95.4439 154.059 95.4813 155.34C95.4937 155.758 95.7202 156.171 95.7274 156.588C95.7331 156.925 95.564 157.268 95.4527 157.601C95.4367 157.649 95.2649 157.704 95.2402 157.68C95.0637 157.506 94.7685 157.315 94.7656 157.125C94.7428 155.651 94.7993 154.175 94.7846 152.7C94.778 152.035 94.6249 151.371 94.6083 150.705C94.5694 149.154 94.7437 147.574 94.5047 146.057C94.318 144.873 94.3634 143.744 94.3817 142.579C94.3859 142.318 93.6563 141.991 93.2206 141.789C92.6549 141.527 92.2954 141.878 92.0273 142.348C92.0029 142.391 91.9015 142.412 91.9013 142.443C91.8883 145.184 91.8706 147.924 91.8814 150.665C91.8846 151.458 91.9758 152.251 92.0151 153.044C92.0297 153.342 91.9982 153.496 92.4545 153.426C93.226 153.309 94.2391 154.449 94.0158 155.1C93.8438 155.601 93.5323 156.054 93.3596 156.555C92.9698 157.686 92.1178 158.78 92.4935 160.008C92.779 160.941 93.3968 161.813 94.0274 162.58C94.2787 162.886 94.9666 162.821 95.4469 162.956C95.6092 163.002 95.7982 163.115 95.872 163.253C95.9196 163.344 95.816 163.579 95.7115 163.659C95.6485 163.708 95.4538 163.582 95.3174 163.537C95.0933 163.464 94.8728 163.357 94.6431 163.329C93.5622 163.204 93.5022 163.138 93.011 161.935C92.835 161.503 92.5049 161.136 92.3178 160.708C92.1414 160.303 92.0415 159.862 91.9434 159.428C91.849 159.011 91.7235 158.578 91.751 158.161C91.7833 157.67 91.9263 157.174 92.0944 156.707C92.2445 156.29 92.5022 155.912 92.6892 155.507C92.7109 155.46 92.5997 155.324 92.5222 155.269C92.4802 155.239 92.365 155.271 92.307 155.311C91.7476 155.692 91.4812 156.308 91.1271 156.848C91.0106 157.025 91.0465 157.303 91.0139 157.535C90.9654 157.882 90.8723 158.23 90.8802 158.576C90.895 159.215 90.8234 159.912 91.0492 160.48C91.5186 161.662 91.9732 162.91 92.9309 163.79C93.2833 164.114 93.8686 164.269 94.456 164.348C95.2299 164.451 95.9634 164.227 96.722 164.313C97.0688 164.354 97.4459 164.051 97.8088 164.052C98.2512 164.054 98.5975 163.811 98.989 163.748C99.4363 163.675 99.8057 163.483 100.196 163.298C100.832 162.996 101.522 162.781 102.103 162.398C102.619 162.057 103.013 161.533 103.47 161.098C104.174 160.427 104.768 159.686 105.241 158.823C105.45 158.442 105.78 158.153 105.644 157.672C105.623 157.597 105.569 157.477 105.524 157.474C105.424 157.467 105.286 157.489 105.221 157.555C103.728 159.061 102.273 160.606 100.738 162.067C100.324 162.46 99.6769 162.613 99.1292 162.862C98.8241 162.999 98.4975 163.088 98.191 163.223C97.5235 163.516 96.994 163.108 96.4249 162.896C96.4516 162.837 96.467 162.738 96.5064 162.727C97.4332 162.48 98.3727 162.275 99.2873 161.989C99.7102 161.857 100.105 161.602 100.476 161.348C100.835 161.103 101.133 160.769 101.482 160.507C102.79 159.529 103.86 158.378 104.372 156.779C104.511 156.347 105.442 156.072 105.977 156.232C106.3 156.328 106.669 156.32 106.952 156.476C107.134 156.576 107.329 156.914 107.293 157.103C107.103 158.111 106.471 158.859 105.765 159.577C105.297 160.053 105.007 160.712 104.52 161.163C103.694 161.926 102.832 162.681 101.881 163.269C100.919 163.864 99.8509 164.308 98.7888 164.711C98.0279 164.999 97.2087 165.213 96.4006 165.28C95.0213 165.396 93.6637 165.286 92.4403 164.467C91.674 163.953 91.1571 163.242 90.7583 162.473C90.5345 162.042 90.7495 161.394 90.5536 160.934C90.1651 160.023 90.0933 159.088 90.1751 158.149C90.2308 157.508 90.6279 156.886 90.6302 156.255C90.6329 155.546 91.1544 155.197 91.3819 154.662C91.4278 154.554 91.3053 154.386 91.3047 154.245C91.2984 152.643 91.3016 151.042 91.3003 149.44C91.2997 148.633 91.35 147.821 91.2717 147.023C91.2261 146.558 90.9383 146.122 90.824 145.658C90.7659 145.422 90.8647 145.15 90.8676 144.894C90.8755 144.169 90.8045 143.436 90.887 142.72C90.9905 141.819 91.2416 140.936 91.3776 140.038C91.4536 139.535 91.4264 139.018 91.444 138.507C91.4787 137.502 91.6842 136.51 92.3842 135.788C92.9302 135.224 93.5835 134.691 94.49 134.689C94.7126 134.688 95.0165 134.286 95.1401 134.349C95.4212 134.492 95.6945 134.779 95.8051 135.07C95.8542 135.199 95.539 135.536 95.3238 135.682C94.9411 135.941 94.4941 135.932 94.0268 135.912C93.2592 135.879 92.559 136.884 92.2629 137.765C92.02 138.489 92.3914 139.133 92.2261 139.822C92.1769 140.027 92.5813 140.347 92.7934 140.601C92.8155 140.627 93.0119 140.566 93.0121 140.545C93.017 140.11 93.0467 139.669 92.9843 139.242C92.9254 138.838 92.6531 138.432 93.158 138.126C93.1127 138.075 93.0675 138.025 93.0222 137.903Z" fill="#FFB61D"/>
<path fill-rule="evenodd" clip-rule="evenodd" d="M121.427 170.755C121.292 171.488 121.148 172.148 121.03 172.81C121.011 172.921 121.131 173.049 121.135 173.17C121.171 174.213 120.981 175.245 120.947 176.288C120.931 176.788 120.976 177.336 120.838 177.829C120.668 178.438 120.914 179.239 120.133 179.597C119.833 179.735 119.39 179.996 119.214 179.884C118.874 179.668 118.309 179.549 118.398 178.88C118.476 178.292 118.312 177.664 118.437 177.094C118.651 176.12 118.424 175.137 118.592 174.19C118.694 173.617 118.583 173.044 118.716 172.502C118.931 171.627 118.899 170.736 119.015 169.859C119.125 169.026 119.191 168.19 119.3 167.36C119.413 166.503 119.478 165.642 119.594 164.791C119.698 164.029 119.681 163.223 119.9 162.519C120.095 161.894 119.639 161.174 120.248 160.635C120.331 160.561 120.113 160.21 120.146 160.005C120.423 158.304 120.207 156.592 120.293 154.889C120.299 154.769 120.489 154.596 120.626 154.555C121.055 154.428 121.496 154.332 121.939 154.272C122.042 154.258 122.274 154.436 122.272 154.522C122.246 155.984 122.161 157.446 122.155 158.908C122.149 159.964 122.266 161.019 122.276 162.075C122.282 162.589 122.157 163.104 122.114 163.62C122.069 164.157 122.236 164.668 121.92 165.24C121.682 165.67 121.891 166.336 121.851 166.893C121.777 167.934 121.714 168.981 121.532 170.006C121.494 170.222 121.412 170.446 121.427 170.755ZM119.419 178.286C119.654 178.642 119.642 178.632 119.859 178.361C120.115 178.041 119.921 177.668 120.004 177.344C120.229 176.471 120.173 175.578 120.279 174.698C120.364 173.992 120.486 173.288 120.524 172.581C120.573 171.667 120.479 170.74 120.59 169.837C120.685 169.06 120.655 168.281 120.93 167.492C121.209 166.692 121.089 165.752 121.138 164.873C121.15 164.658 121.059 164.392 121.155 164.236C121.481 163.704 121.189 163.148 121.269 162.612C121.28 162.54 121.098 162.441 121.005 162.354C120.951 162.456 120.865 162.552 120.849 162.659C120.747 163.361 120.63 164.061 120.573 164.767C120.497 165.703 120.47 166.646 120.423 167.586C120.42 167.657 120.453 167.752 120.418 167.798C120.029 168.319 120.331 168.94 120.155 169.524C119.932 170.261 120.032 171.096 119.993 171.889C119.991 171.914 119.997 171.938 119.992 171.961C119.874 172.516 119.727 173.069 119.647 173.63C119.583 174.08 119.847 174.492 119.482 175.015C119.205 175.414 119.447 176.157 119.409 176.743C119.386 177.097 119.245 177.443 119.204 177.798C119.192 177.903 119.343 178.028 119.419 178.286ZM121.284 158.632C121.299 158.235 121.315 157.837 121.328 157.439C121.33 157.383 121.317 157.277 121.309 157.277C121.219 157.276 121.053 157.277 121.048 157.303C120.975 157.701 120.909 158.101 120.884 158.504C120.88 158.564 121.097 158.637 121.284 158.632Z" fill="#00160A"/>
<path fill-rule="evenodd" clip-rule="evenodd" d="M93.2733 160.605C93.2414 160.33 93.2453 160.091 93.2493 159.852C93.4451 159.908 93.6639 159.926 93.8329 160.027C94.722 160.56 95.5945 161.12 96.4837 161.653C96.6388 161.746 96.8435 161.768 97.0293 161.794C97.172 161.814 97.3212 161.791 97.4674 161.787C97.3274 161.907 97.16 162.151 97.0516 162.127C96.3741 161.977 95.5674 162.529 95.0035 161.766C94.9925 161.752 94.93 161.756 94.9062 161.773C94.6529 161.95 94.3688 162.298 94.0855 161.961C93.7617 161.576 93.5625 161.086 93.2733 160.605Z" fill="#00160A"/>
<defs>
<linearGradient id="paint0_linear_215:752" x1="103" y1="56" x2="233" y2="188" gradientUnits="userSpaceOnUse">
<stop stop-color="#439CE6"/>
<stop offset="0.317708" stop-color="#F0ABE1" stop-opacity="0.65625"/>
<stop offset="0.625" stop-color="#BD38B0" stop-opacity="0.49"/>
<stop offset="1" stop-color="#DC0A0A" stop-opacity="0.81"/>
</linearGradient>
<linearGradient id="paint1_linear_215:752" x1="103" y1="56" x2="233" y2="188" gradientUnits="userSpaceOnUse">
<stop stop-color="#439CE6"/>
<stop offset="0.317708" stop-color="#F0ABE1" stop-opacity="0.65625"/>
<stop offset="0.625" stop-color="#BD38B0" stop-opacity="0.49"/>
<stop offset="1" stop-color="#DC0A0A" stop-opacity="0.81"/>
</linearGradient>
</defs>
</svg>
